<?xml version="1.0" encoding="utf-8"?>
<!-- Generator: Adobe Illustrator 26.3.1, SVG Export Plug-In . SVG Version: 6.00 Build 0)  -->
<svg version="1.1" id="Layer_2_00000103252328296167596270000000473548828749537467_"
	 xmlns="http://www.w3.org/2000/svg" xmlns:xlink="http://www.w3.org/1999/xlink" x="0px" y="0px" viewBox="0 0 1486.2 454.6"
	 style="enable-background:new 0 0 1486.2 454.6;" xml:space="preserve">
<style type="text/css">
	.st0{enable-background:new    ;}
	.st1{fill:#D9D9D9;}
	.st2{fill:#BF0B3B;}
</style>
<g id="Cragardev_Text_Logo">
	<g class="st0">
		<path class="st1" d="M219.5,218c-10.1,54.5-47.7,90.6-103.2,90.6c-62.8,0-110.8-43-110.8-125.3c0-81.2,43-130.7,111.5-130.7
			c59.9,0,97.8,38.3,102.5,86.6h-50.2c-6.9-27.1-28.2-43.3-52-43.3c-41.5,0-61,32.1-61,84.5c0,53.1,19.5,84.5,58.5,84.5
			c29.6,0,47.7-17,54.5-46.9H219.5z"/>
	</g>
	<g class="st0">
		<path class="st1" d="M225.6,300.3V122.7h44V144c15.5-23.8,33.6-26,52.7-26h6.1v48c-4.3-0.7-8.7-1.1-13-1.1c-28.9,0-43,14.4-43,43
			v92.4H225.6z"/>
	</g>
	<g class="st0">
		<path class="st1" d="M442.6,300.3c-1.4-4.3-2.5-10.5-2.9-15.9c-11.2,12.3-30,20.6-53.8,20.6c-40.4,0-59.2-19.9-59.2-48.7
			c0-51.3,34.3-57,81.6-63.5c23.5-3.2,30-7.9,30-20.2c0-11.6-11.6-18.4-30-18.4c-21.3,0-30,10.5-32.1,26.4h-43.7
			c0.7-36.8,20.9-62.5,78-62.5c56.3,0,75.8,25.3,75.8,70v112.3H442.6z M439.3,213.4c-4.7,4.7-13,7.2-30.3,10.5
			c-26.7,5.1-35.4,12.6-35.4,27.8c0,13.4,7.9,19.9,22.7,19.9c24.2,0,42.2-17.7,42.6-38.6L439.3,213.4z"/>
		<path class="st1" d="M620.9,276.5c-6.5,15.9-25.6,25.3-48.7,25.3c-58.5,0-78.7-44.8-78.7-91.3c0-55.2,34.7-92.4,77.6-92.4
			c22.4,0,38.6,8.7,49.8,26.7v-22h46.9v179.4c0,53.4-39,82.3-88.4,82.3s-85.9-28.5-85.9-74.4h43.7c0,21.3,15.5,33.9,39,33.9
			c24.9,0,44.8-14.8,44.8-38.3V276.5z M622.4,215.9c0-38.6-13.4-57-40.1-57c-26.4,0-40.1,17.7-40.1,54.1c0,31.8,17,52,40.1,52
			C605,265,622.4,245.8,622.4,215.9z"/>
	</g>
	<g class="st0">
		<path class="st1" d="M787.7,300.3c-1.4-4.3-2.5-10.5-2.9-15.9c-11.2,12.3-30,20.6-53.8,20.6c-40.4,0-59.2-19.9-59.2-48.7
			c0-51.3,34.3-57,81.6-63.5c23.5-3.2,30-7.9,30-20.2c0-11.6-11.6-18.4-30-18.4c-21.3,0-30,10.5-32.1,26.4h-43.7
			c0.7-36.8,20.9-62.5,78-62.5c56.3,0,75.8,25.3,75.8,70v112.3H787.7z M784.4,213.4c-4.7,4.7-13,7.2-30.3,10.5
			c-26.7,5.1-35.4,12.6-35.4,27.8c0,13.4,7.9,19.9,22.7,19.9c24.2,0,42.2-17.7,42.6-38.6L784.4,213.4z"/>
	</g>
	<g class="st0">
		<path class="st1" d="M839.3,300.3V122.7h44V144c15.5-23.8,33.6-26,52.7-26h6.1v48c-4.3-0.7-8.7-1.1-13-1.1c-28.9,0-43,14.4-43,43
			v92.4H839.3z"/>
	</g>
	<g class="st0">
		<path class="st2" d="M948.7,300.3V60.7h92.8c65,0,111.2,44.4,111.2,117.3c0,72.9-41.5,122.4-103.6,122.4H948.7z M1039,259.6
			c43.7,0,62.5-27.4,62.5-81.6c0-54.1-18.8-75.8-66.8-75.8h-37.2v157.4H1039z"/>
	</g>
	<g class="st0">
		<path class="st2" d="M1202.8,223.8c1.4,26.7,16.6,44,39.7,44c15.2,0,28.5-7.6,31.8-19.9h48.4c-10.8,36.5-40.1,57-78,57
			c-59.2,0-88.8-32.5-88.8-96.7c0-54.9,31.4-90.2,85.9-90.2s83.4,35.4,83.4,105.8H1202.8z M1276.8,194.2c-0.7-26.4-18-39-36.5-39
			c-18.8,0-34.3,14.4-36.1,39H1276.8z"/>
	</g>
	<g class="st0">
		<path class="st2" d="M1370,300.3l-63.5-177.6h52.3l37.2,117.3l37.5-117.3h49.5l-63.9,177.6H1370z"/>
	</g>
	<g class="st0">
		<path class="st1" d="M677.2,417.2V310.7h47c20.9,0,34.2,15.2,34.2,34.5c0,19.4-13.3,33.4-34.2,33.4h-24.7v38.7H677.2z
			 M720.7,360.5c12.8,0,18.1-6.6,18.1-15.9c0-8.8-5.3-15.4-18.1-15.4h-21.2v31.3H720.7z"/>
		<path class="st1" d="M761.6,365c0-36.1,18.4-57.7,51.2-57.7s50.9,21.7,50.9,58.2c0,36.6-18.1,55.5-50.9,55.5
			S761.6,400.9,761.6,365z M841.6,365.4c0-25.2-10.3-38.5-28.9-38.5c-18.8,0-29.2,13.3-29.2,38.5s10.7,36.4,29.2,36.4
			C828.8,401.8,841.6,390.6,841.6,365.4z"/>
		<path class="st1" d="M932.4,417.2v-27.4c0-10.3-3.8-14.3-16.7-14.3H892v41.7h-21.7V310.7h54.1c19.7,0,32.7,13.2,32.7,30.8
			c0,11.4-5.6,21-15.9,24.7c9.5,3,13,8.3,13,20.9v30.2H932.4z M892,329.2v28.4h27.9c11.9,0,16.4-5.9,16.4-14.1
			c0-8.3-4.5-14.3-15.6-14.3H892z"/>
		<path class="st1" d="M992.1,417.2v-87.9H960v-18.6h86.6v18.6h-32.2v87.9H992.1z"/>
	</g>
	<g class="st0">
		<path class="st1" d="M1074.2,372.3v44.9h-22.3V310.7h75.9v18.6h-53.6v24.2h46.8v18.8H1074.2z"/>
	</g>
	<g class="st0">
		<path class="st1" d="M1126.7,365c0-36.1,18.4-57.7,51.2-57.7s50.9,21.7,50.9,58.2c0,36.6-18.1,55.5-50.9,55.5
			S1126.7,400.9,1126.7,365z M1206.8,365.4c0-25.2-10.3-38.5-28.9-38.5c-18.8,0-29.2,13.3-29.2,38.5s10.7,36.4,29.2,36.4
			C1193.9,401.8,1206.8,390.6,1206.8,365.4z"/>
		<path class="st1" d="M1235.5,417.2V310.7h22.3v87.1h52.8v19.4H1235.5z"/>
		<path class="st1" d="M1315.8,417.2V310.7h22.3v106.5H1315.8z"/>
		<path class="st1" d="M1344.6,365c0-36.1,18.4-57.7,51.2-57.7c32.7,0,50.9,21.7,50.9,58.2c0,36.6-18.1,55.5-50.9,55.5
			C1363,420.9,1344.6,400.9,1344.6,365z M1424.6,365.4c0-25.2-10.3-38.5-28.9-38.5c-18.8,0-29.2,13.3-29.2,38.5s10.7,36.4,29.2,36.4
			C1411.8,401.8,1424.6,390.6,1424.6,365.4z"/>
	</g>
</g>
</svg>
