<?xml version="1.0" encoding="utf-8"?>
<!-- Generator: Adobe Illustrator 26.4.1, SVG Export Plug-In . SVG Version: 6.00 Build 0)  -->
<svg version="1.1" xmlns="http://www.w3.org/2000/svg" xmlns:xlink="http://www.w3.org/1999/xlink" x="0px" y="0px"
	 viewBox="0 0 500 500" style="enable-background:new 0 0 500 500;" xml:space="preserve">
<style type="text/css">
	.st0{fill:#F5F5F5;}
	.st1{fill:#E0E0E0;}
	.st2{display:none;}
	.st3{display:inline;}
	.st4{fill:#EBEBEB;}
	.st5{fill:#7CCBDE;}
	.st6{opacity:0.15;}
	.st7{fill:#FFFFFF;}
	.st8{fill:#37474F;}
	.st9{fill:#263238;}
	.st10{fill:#455A64;}
	.st11{fill:#FAFAFA;}
	.st12{fill:#61C7DE;}
	.st13{opacity:0.3;fill:#FFFFFF;}
	.st14{opacity:0.2;}
	.st15{fill:#F22015;}
	.st16{fill:#DEB633;}
	.st17{fill:#39A2DE;}
	.st18{opacity:0.1;}
	.st19{opacity:0.35;fill:#FFFFFF;}
	.st20{opacity:5.000000e-02;}
	.st21{opacity:0.95;fill:#FFFFFF;}
	.st22{opacity:0.8;fill:#FFFFFF;}
	.st23{opacity:0.7;fill:#FFFFFF;}
	.st24{opacity:0.4;fill:#FFFFFF;}
	.st25{display:inline;fill:#37474F;}
	.st26{display:inline;fill:#263238;}
	.st27{display:inline;fill:#455A64;}
	.st28{fill:#FFA8A7;}
	.st29{fill:#F28F8F;}
	.st30{fill:#B16668;}
	.st31{display:inline;fill:#FFA8A7;}
	.st32{display:inline;fill:#F28F8F;}
	.st33{display:none;fill:#A7CDFF;}
	.st34{display:none;fill:#4F4B37;}
	.st35{display:none;fill:#8FBDF2;}
	.st36{fill:#4F4B37;}
	.st37{fill:#645E45;}
	.st38{fill:#DEA936;}
	.st39{opacity:0.3;}
	.st40{opacity:0.4;}
	.st41{opacity:0.7;}
	.st42{opacity:0.25;}
	.st43{fill:#DEB41D;}
	.st44{fill:#D6D8E0;}
</style>
<g id="Floor">
	<ellipse id="Floor_13_" class="st0" cx="254.1" cy="347.9" rx="223.9" ry="137"/>
</g>
<g id="Shadows">
	<path id="Shadow_15_" class="st1" d="M367.3,404.8c-0.9,0-2.1-0.1-3.3-0.8l-39.6-22.9c-1.4-0.8-2.3-2.2-2.3-3.7
		c0-1.5,0.8-2.8,2.3-3.7l65.5-37.8c1.2-0.7,2.5-0.8,3.3-0.8c0.9,0,2.1,0.1,3.3,0.8l39.6,22.9c1.4,0.8,2.3,2.2,2.3,3.7
		c0,1.5-0.8,2.8-2.3,3.7l-65.5,37.8C369.5,404.6,368.2,404.8,367.3,404.8z"/>
	<path id="Shadow_8_" class="st1" d="M284.2,454.9c-5.2,0-10.1-0.6-14.8-1.7c-4.8-1.1-9.2-2.8-13.1-4.8l-0.1-0.1
		c-0.8-0.4-1.8-1.1-3.1-1.9c-1.2-0.8-2.5-1.6-3.8-2.4c-1.3-0.9-2.5-1.7-3.7-2.5c-1.2-0.8-2.1-1.5-2.8-2c-3.4-2.6-5.9-5.7-7.6-9
		c-1.8-3.7-2.4-7.6-1.6-11.6c0.7-3.8,2.8-7.5,6-11.2c3.1-3.4,7.4-6.6,13.2-9.7c6.4-3.4,12.6-5.9,18.5-7.4c5.9-1.5,11.5-2.3,16.8-2.4
		l0.5,0c5.1,0,10,0.6,14.6,1.9c4.6,1.3,8.9,3,12.9,5.1c1.6,0.9,3.3,1.9,5.1,3.1c1.8,1.2,3.4,2.3,4.7,3.3c2.5,1.8,4.2,3.8,5.1,6
		c0.9,2.1,1.2,4.3,0.9,6.4c0.1,0,0.3,0,0.4,0l0.3,0c1.9,0,3.6,0.6,5,1.6c1.9,1.3,2.9,3.6,2.5,5.9c-0.2,1.6-0.7,3.3-1.2,5.1
		c-0.7,2.1-1.9,4.3-3.6,6.5c-1.6,2.1-3.8,4.1-6.6,6.4c-2.7,2.2-6.4,4.4-10.8,6.8c-5.5,2.9-11.2,5.1-16.8,6.5
		c-5.6,1.3-11.1,2-16.3,2.1L284.2,454.9z M280.7,421c0.2,0.1,0.4,0.3,0.6,0.4c1.8,1.2,3.5,1.8,5.2,2c0.3,0,0.6,0.1,0.9,0.1
		c0.8,0,1.5-0.1,2.1-0.4c-0.2-0.1-0.3-0.2-0.5-0.4c-1.8-1.2-3.6-1.9-5.3-2.1c-0.3,0-0.6-0.1-0.9-0.1
		C282.1,420.6,281.4,420.8,280.7,421z"/>
	<path id="Shadow_3_" class="st1" d="M166.8,436.7L38.1,362.5c-2.7-1.6-2.7-4.1,0-5.7l261.2-150.8c2.7-1.6,7.1-1.6,9.8,0l128.7,74.2
		c2.7,1.6,2.7,4.1,0,5.7L176.7,436.7C173.9,438.2,169.5,438.2,166.8,436.7z"/>
</g>
<g id="Clouds" class="st2">
	<g id="Clouds_7_" class="st3">
		<g id="XMLID_746_">
			<path id="XMLID_923_" class="st4" d="M158.2,59.4l-6.6,3.8c0-0.3,0.1-0.6,0.1-0.9v-1.9c0-3.4-2.4-4.7-5.3-3.1
				c-1.2,0.7-2.3,1.8-3.2,3c-0.5-4.2-3.8-5.8-7.9-3.5c-4.4,2.5-7.9,8.7-7.9,13.7v2.8c0,1.3,0.2,2.4,0.7,3.3l-5.4,3.1
				c-1.6,0.9-2.9,3.2-2.9,5.1c0,1.9,1.3,2.6,2.9,1.7l35.5-20.5c1.6-0.9,2.9-3.2,2.9-5.1C161.1,59.2,159.8,58.4,158.2,59.4z"/>
		</g>
		<g id="XMLID_1345_">
			<path id="XMLID_1348_" class="st4" d="M114.9,42l-3.6,1.4v-8c0-6.3-5-7.8-10.5-4.7l0,0c-5.5,3.2-9.9,10.8-9.9,17.1V49
				c-1.2-0.5-2.8-0.3-4.6,0.7l0,0c-3.9,2.3-7.1,7.8-7.1,12.3v0.5l-5,2.9c-2.6,1.5-4.7,5.1-4.7,8.1c0,3,2.1,4.2,4.7,2.7l40.8-23.5
				c2.6-1.5,4.7-5.1,4.7-8.1C119.6,41.7,117.5,40.5,114.9,42z"/>
		</g>
	</g>
</g>
<g id="Plant">
	<g id="Plants_4_">
		<g id="XMLID_541_">
			<g id="XMLID_635_">
				<path id="XMLID_681_" class="st5" d="M60.9,333.6l6.8-3.9c0,0,4.1-16.8,2.4-32c-2.3-21.3-16.3-29.3-21.6-27.5
					c-5.3,1.8-6.9,8,1.9,20.7C55.7,298.4,62.1,314,60.9,333.6z"/>
			</g>
			<g id="XMLID_574_" class="st6">
				<path id="XMLID_630_" d="M60.9,333.6l6.8-3.9c0,0,4.1-16.8,2.4-32c-2.3-21.3-16.3-29.3-21.6-27.5c-5.3,1.8-6.9,8,1.9,20.7
					C55.7,298.4,62.1,314,60.9,333.6z"/>
			</g>
			<g id="XMLID_542_">
				<path id="XMLID_543_" class="st7" d="M63.8,325.3C63.7,325.3,63.7,325.3,63.8,325.3c-0.3-0.1-0.5-0.3-0.4-0.6
					c3.7-19.6-3.1-41.7-11.6-50.9c-0.2-0.2-0.2-0.5,0-0.7c0.2-0.2,0.5-0.2,0.7,0C61,282.5,68,305,64.2,324.9
					C64.2,325.1,64,325.3,63.8,325.3z"/>
			</g>
		</g>
		<g id="XMLID_492_">
			<g id="XMLID_539_">
				<path id="XMLID_540_" class="st5" d="M42.1,346.8c-1.1,0.5-3.9-1.9-4.7-2.5c-1.4-1-2.4-2.4-3.1-4c-0.8-1.8-0.9-3.7-0.5-5.7
					c0.2-1,0.5-2,0.9-2.9c0.3-1,0.7-1.9,1-2.9c0.3-0.9,0.6-1.9,0.6-2.9c-0.2-2-1.8-3.5-3.4-4.7c-1.7-1.4-3.5-3.3-3.3-5.6
					c0.1-1.8,1.1-3.5,2.4-4.9c1.2-1.4,2.6-2.6,3.7-4.1c0.8-1.1,1.4-2.3,1.4-3.6c0-0.8-0.3-1.6-0.7-2.4c-0.8-1.6-1.8-3.1-2.3-4.8
					c-0.5-1.7-0.3-3.8,1.1-4.9c1.1-0.9,2.7-1,4.2-0.8c1.3,0.2,2.6,0.8,3.7,1.5c3.7,2.3,5.6,6.9,9.6,8.7c1.5,0.7,3.2,0.9,4.8,1.4
					c1.6,0.5,3.2,1.4,3.9,2.9c1.3,3-1.6,6.5-0.7,9.7c0.8,2.8,3.4,4,4.8,6.6c0.6,1.1,0.7,2.4,0.5,3.7c-0.3,2.1-0.7,3.7-1.8,6
					c-1,1.9-3.6,5.6-3.6,5.6S42.3,346.7,42.1,346.8z"/>
			</g>
			<g id="XMLID_526_">
				<path id="XMLID_529_" class="st7" d="M52.5,341.4C52.5,341.4,52.5,341.4,52.5,341.4c-0.3,0-0.5-0.3-0.4-0.5
					c1.7-18.7-6.1-39.8-12.2-46.1c-0.2-0.2-0.2-0.5,0-0.7c0.2-0.2,0.5-0.2,0.7,0C46.8,300.6,54.8,322,53,341
					C53,341.2,52.8,341.4,52.5,341.4z"/>
			</g>
			<g id="XMLID_522_">
				<path id="XMLID_523_" class="st7" d="M50.7,318.4c0,0-0.1,0-0.1,0c-5.9-2.2-13.4-2.9-13.5-2.9c-0.3,0-0.5-0.3-0.4-0.5
					c0-0.3,0.2-0.5,0.5-0.4c0.1,0,7.7,0.7,13.7,2.9c0.2,0.1,0.4,0.4,0.3,0.6C51.1,318.3,50.9,318.4,50.7,318.4z"/>
			</g>
		</g>
	</g>
</g>
<g id="Device_1_">
	<g id="Device">
		<g id="Mobile">
			<path class="st8" d="M46.6,357.8l119.7,69.1c3.9,2.2,8.5,2.3,12.5,0.2l241-139.1c3.8-2.2,6.9-7.1,6.9-10.9
				c0-3.9-3.1-8.8-6.9-10.9l-119.2-68.8c-3.8-2.2-10-2.2-13.7,0L46.6,335.9c-3.8,2.2-6.9,7.1-6.9,10.9
				C39.7,350.7,42.8,355.6,46.6,357.8z"/>
			<path class="st9" d="M166.3,426.9L46.6,357.8c-3.8-2.2-6.9-7.1-6.9-10.9c0-3.9,3.1-8.8,6.9-10.9L172.8,263v165.6
				C170.6,428.6,168.3,428,166.3,426.9z"/>
			<path class="st10" d="M169.1,414.5c3.3,1.9,8.8,1.9,12.1,0l238.5-137.7c5.1-3,5.1-7.8,0-10.8l-119.3-68.9c-3.8-2.2-10-2.2-13.7,0
				L46.6,335.9c-3.8,2.2-3.8,5.8,0,7.9L169.1,414.5z"/>
			<path class="st8" d="M180.7,400.7c3.6,2.1,9.5,2.1,13.1,0L399,282.2c3.6-2.1,3.6-5.5,0-7.5l-112.2-64.8c-3.6-2.1-9.5-2.1-13.1,0
				L68.5,328.4c-3.6,2.1-3.6,5.5,0,7.5L180.7,400.7z"/>
			<path class="st9" d="M280.7,208.4c2.2,0.1,4.4,0.6,6.1,1.5L399,274.7c3.6,2.1,3.6,5.5,0,7.5L376.8,295l-96.1-61.4V208.4z"/>
			<path class="st11" d="M273.7,214.8c3.6-2.1,9.5-2.1,13.1,0l112.2,64.8c0.7,0.4,1.3,0.9,1.7,1.4c-0.4,0.5-1,0.9-1.6,1.3
				L193.8,400.7c-3.6,2.1-9.5,2.1-13.1,0L68.5,335.9c-0.7-0.4-1.3-0.9-1.7-1.4c0.4-0.5,0.9-0.9,1.6-1.3L273.7,214.8z"/>
			<g>
				<path class="st9" d="M358,244.4l-19.9-11.5c-1.2-0.7-1.2-1.8-0.1-2.4c1.1-0.6,3-0.6,4.2,0.1L362,242c1.2,0.7,1.2,1.8,0.1,2.4
					C361.1,245.1,359.2,245,358,244.4z"/>
				<g>
					<path class="st9" d="M323.9,224.7c-1.1-0.6-1.1-1.7,0-2.3c1.1-0.6,2.9-0.6,4,0c1.1,0.6,1.1,1.7,0,2.3
						C326.8,225.3,325,225.3,323.9,224.7z"/>
					<path class="st9" d="M315.8,220c-1.1-0.6-1.1-1.7,0-2.3c1.1-0.6,2.9-0.6,4,0c1.1,0.6,1.1,1.7,0,2.3
						C318.7,220.7,316.9,220.7,315.8,220z"/>
					<path class="st9" d="M380.3,257.2c-1.1-0.6-1.1-1.7,0-2.3c1.1-0.6,2.9-0.6,4,0c1.1,0.6,1.1,1.7,0,2.3
						C383.2,257.9,381.4,257.9,380.3,257.2z"/>
					<path class="st9" d="M372.2,252.6c-1.1-0.6-1.1-1.7,0-2.3c1.1-0.6,2.9-0.6,4,0c1.1,0.6,1.1,1.7,0,2.3
						C375.1,253.2,373.3,253.2,372.2,252.6z"/>
				</g>
			</g>
		</g>
		<g id="Mail_Notification">
			<path id="XMLID_725_" class="st12" d="M175.7,367.6v0.4c0,0.7,0.5,1.5,1.1,1.9l23.3,13.5c0.6,0.3,1.6,0.3,2.2,0l38.7-22.3
				c0.6-0.3,1.1-1.2,1.1-1.9v-0.4c0-0.7-0.5-1.5-1.1-1.9l-23.3-13.5c-0.6-0.3-1.6-0.3-2.2,0l-38.7,22.3
				C176.2,366.1,175.7,366.9,175.7,367.6z"/>
			<path id="XMLID_724_" class="st12" d="M175.7,367.6v0.4c0,0.7,0.5,1.5,1.1,1.9l23.3,13.5c0.6,0.3,1.6,0.3,2.2,0l38.7-22.3
				c0.6-0.3,1.1-1.2,1.1-1.9v-0.4c0-0.7-0.5-1.5-1.1-1.9l-23.3-13.5c-0.6-0.3-1.6-0.3-2.2,0l-38.7,22.3
				C176.2,366.1,175.7,366.9,175.7,367.6z"/>
			<path class="st13" d="M241,356.9l-23.3-13.5c-0.6-0.3-1.6-0.3-2.2,0l-14.2,8.2v32h0c0.4,0,0.8-0.1,1.1-0.3l38.7-22.3
				c0.6-0.3,1.1-1.2,1.1-1.9v-0.4C242.1,358.1,241.6,357.2,241,356.9z"/>
			<path class="st6" d="M241,356.9l-23.3-13.5c-0.6-0.3-1.6-0.3-2.2,0l-14.2,8.2v32h0c0.4,0,0.8-0.1,1.1-0.3l38.7-22.3
				c0.6-0.3,1.1-1.2,1.1-1.9v-0.4C242.1,358.1,241.6,357.2,241,356.9z"/>
			<path class="st13" d="M201.2,351.6l-24.4,14.1c-0.6,0.3-1.1,1.2-1.1,1.9v0.4c0,0.7,0.5,1.5,1.1,1.9l23.3,13.5
				c0.3,0.2,0.7,0.3,1.1,0.3h0V351.6z"/>
			<path class="st14" d="M201.2,351.6l-24.4,14.1c-0.6,0.3-1.1,1.2-1.1,1.9v0.4c0,0.7,0.5,1.5,1.1,1.9l23.3,13.5
				c0.3,0.2,0.7,0.3,1.1,0.3h0V351.6z"/>
			<path id="XMLID_723_" class="st12" d="M196.4,378.3L176.8,367c-0.6-0.3-0.6-0.9,0-1.3l38.7-22.3c0.6-0.3,1.6-0.3,2.2,0l23.3,13.5
				c0.6,0.3,0.6,0.9,0,1.3l-6.4,3.7l-2.2,1.3l-30,17.3c-0.6,0.3-1.6,0.3-2.2,0l-1.9-1.1L196.4,378.3z"/>
			<path id="XMLID_720_" class="st13" d="M196.4,378.3L176.8,367c-0.6-0.3-0.6-0.9,0-1.3l38.7-22.3c0.6-0.3,1.6-0.3,2.2,0l23.3,13.5
				c0.6,0.3,0.6,0.9,0,1.3l-6.4,3.7l-2.2,1.3l-30,17.3c-0.6,0.3-1.6,0.3-2.2,0l-1.9-1.1L196.4,378.3z"/>
			<path class="st6" d="M214.2,359.5l26.8-2.6l-26.5,1.5l3.2-15c-0.3-0.2-0.8-0.3-1.2-0.2l-5,20.3l-35.1,2.9c0,0.2,0.1,0.5,0.4,0.7
				l28.3-1.6l-3.9,15.4l5-15.4h0l4.8-0.3c0.6,0,1.2-0.3,1.6-0.7l0,0l0,0c0.4-0.4,0.7-0.8,0.8-1.4L214.2,359.5z"/>
			<path id="XMLID_712_" class="st13" d="M184.7,365.6l26.7-2.2l1-3.8l0.5-2.1l3.5-14.3c-0.4,0-0.7,0.1-1,0.2l-19.3,11.2l-19.3,11.2
				c-0.3,0.2-0.4,0.4-0.4,0.6l5.4-0.4L184.7,365.6z"/>
			<path id="XMLID_703_" class="st15" d="M212.1,340.2c2.4-1.4,6.4-1.4,8.8,0c2.4,1.4,2.4,3.7,0,5.1c-2.4,1.4-6.4,1.4-8.8,0
				C209.7,343.9,209.7,341.6,212.1,340.2z"/>
			<g>
				<path class="st11" d="M213.5,343.6c-0.1,0-0.1,0-0.2-0.1c0,0-0.1-0.1-0.1-0.1l0.4-1.6c0,0,0-0.1,0-0.1c0-0.1,0.1-0.1,0.1-0.1
					l0.9-0.5c0.1,0,0.1,0,0.2,0c0.1,0,0.1,0,0.2,0l4.7,2.7c0.1,0,0.1,0.1,0.1,0.1c0,0,0,0.1-0.1,0.1l-1,0.6c-0.1,0-0.1,0-0.2,0
					c-0.1,0-0.1,0-0.2,0l-3.2-1.8l-0.2,0.9c0,0,0,0.1-0.1,0.1c-0.1,0-0.1,0-0.2,0L213.5,343.6z"/>
			</g>
		</g>
		<g id="Notification">
			<path class="st16" d="M257,350.6l-26.3-15.2c-0.6-0.3-0.6-0.9,0-1.2l95.3-55c0.6-0.3,1.6-0.3,2.2,0l26.3,15.2
				c0.6,0.3,0.6,0.9,0,1.2l-95.3,55C258.6,350.9,257.6,350.9,257,350.6z"/>
			<g>
				<path class="st11" d="M252,333.4c-0.1,0.1-0.2,0.1-0.3,0.1c-0.1,0-0.2,0-0.2,0l-5.5-0.6l3.2,1.9c0.1,0,0.1,0.1,0.1,0.1
					c0,0,0,0.1-0.1,0.1l-0.6,0.4c-0.1,0-0.1,0-0.2,0.1c-0.1,0-0.2,0-0.2-0.1l-5.1-2.9c-0.1,0-0.1-0.1-0.1-0.1c0,0,0-0.1,0.1-0.1
					l0.5-0.3c0.1-0.1,0.2-0.1,0.3-0.1c0.1,0,0.2,0,0.2,0l5.5,0.6l-3.2-1.9c-0.1,0-0.1-0.1-0.1-0.1c0,0,0-0.1,0.1-0.1l0.6-0.4
					c0.1,0,0.1,0,0.2,0c0.1,0,0.2,0,0.2,0l5.1,2.9c0.1,0,0.1,0.1,0.1,0.1c0,0,0,0.1-0.1,0.1L252,333.4z"/>
				<path class="st11" d="M251.7,331.3c-0.3-0.2-0.5-0.4-0.7-0.6c-0.2-0.2-0.3-0.4-0.3-0.6c0-0.2,0-0.4,0.2-0.6
					c0.1-0.2,0.3-0.4,0.6-0.6c0.3-0.2,0.6-0.3,1-0.4c0.3-0.1,0.7-0.1,1-0.1c0.3,0,0.7,0.1,1,0.1c0.3,0.1,0.6,0.2,0.9,0.4l0.4,0.2
					c0.1,0,0.1,0.1,0.1,0.1c0,0,0,0.1-0.1,0.1l-2.6,1.5c0.1,0.1,0.3,0.1,0.4,0.1c0.1,0,0.3,0,0.4,0c0.1,0,0.3,0,0.4-0.1
					c0.1,0,0.3-0.1,0.4-0.2c0.2-0.1,0.3-0.2,0.4-0.3c0.1-0.1,0.1-0.2,0.1-0.2c0-0.1,0-0.1,0.1-0.1c0,0,0.1-0.1,0.1-0.1l0.6-0.4
					c0.1,0,0.1-0.1,0.2-0.1c0.1,0,0.2,0,0.2,0.1c0.1,0,0.1,0.1,0.2,0.2c0,0.1,0,0.2,0,0.4c0,0.2-0.1,0.3-0.3,0.5s-0.4,0.3-0.7,0.5
					c-0.3,0.2-0.6,0.3-0.9,0.4c-0.3,0.1-0.7,0.1-1,0.1c-0.4,0-0.7-0.1-1.1-0.2C252.3,331.6,252,331.4,251.7,331.3z M252.4,329.5
					c-0.2,0.1-0.3,0.2-0.3,0.3c-0.1,0.1-0.1,0.2-0.1,0.3c0,0.1,0,0.2,0.1,0.2c0,0.1,0.1,0.1,0.2,0.2l1.8-1c-0.1,0-0.2-0.1-0.3-0.1
					c-0.1,0-0.2-0.1-0.4-0.1c-0.1,0-0.3,0-0.4,0C252.7,329.3,252.6,329.4,252.4,329.5z"/>
				<path class="st11" d="M260.6,326.5l-1.5-1.7c0,0,0-0.1-0.1-0.1c0,0,0-0.1,0.1-0.1l0.6-0.3c0.1,0,0.1,0,0.2,0c0.1,0,0.2,0,0.2,0
					c0,0,0,0,0,0l2.4,2.8c0,0,0.1,0.1,0.1,0.1c0,0,0,0.1-0.1,0.1l-0.6,0.3c-0.1,0-0.1,0.1-0.2,0.1c-0.1,0-0.1,0-0.2,0l-2.9-0.8
					l1.3,1.6c0,0,0,0.1,0.1,0.1c0,0,0,0.1-0.1,0.1l-0.6,0.3c-0.1,0-0.1,0.1-0.2,0.1c-0.1,0-0.1,0-0.2,0l-4.8-1.4c0,0,0,0-0.1,0
					c-0.1,0-0.1-0.1-0.1-0.1c0,0,0-0.1,0.1-0.1l0.6-0.3c0.1,0,0.1-0.1,0.2-0.1c0.1,0,0.1,0,0.2,0l2.9,0.9l-1.5-1.7
					c0,0,0-0.1-0.1-0.1c0,0,0-0.1,0.1-0.1l0.6-0.3c0.1,0,0.1,0,0.2,0c0.1,0,0.1,0,0.2,0L260.6,326.5z"/>
				<path class="st11" d="M264.2,324c-0.3-0.2-0.5-0.4-0.7-0.6c-0.2-0.2-0.3-0.4-0.3-0.6c0-0.2,0-0.4,0.2-0.6
					c0.1-0.2,0.3-0.4,0.6-0.6c0.3-0.2,0.6-0.3,1-0.4c0.3-0.1,0.7-0.1,1-0.1c0.3,0,0.7,0.1,1,0.1c0.3,0.1,0.6,0.2,0.9,0.4l0.4,0.2
					c0.1,0,0.1,0.1,0.1,0.1c0,0,0,0.1-0.1,0.1l-2.6,1.5c0.1,0.1,0.3,0.1,0.4,0.1c0.1,0,0.3,0,0.4,0c0.1,0,0.3,0,0.4-0.1
					c0.1,0,0.3-0.1,0.4-0.2c0.2-0.1,0.3-0.2,0.4-0.3c0.1-0.1,0.1-0.2,0.1-0.2c0-0.1,0-0.1,0.1-0.1c0,0,0.1-0.1,0.1-0.1l0.6-0.4
					c0.1,0,0.1,0,0.2-0.1c0.1,0,0.2,0,0.2,0.1c0.1,0,0.1,0.1,0.2,0.2c0,0.1,0,0.2,0,0.4c0,0.2-0.1,0.3-0.3,0.5
					c-0.1,0.2-0.4,0.3-0.7,0.5c-0.3,0.2-0.6,0.3-0.9,0.4c-0.3,0.1-0.7,0.1-1,0.1c-0.4,0-0.7-0.1-1.1-0.2
					C264.8,324.3,264.5,324.2,264.2,324z M264.9,322.2c-0.2,0.1-0.3,0.2-0.3,0.3c-0.1,0.1-0.1,0.2-0.1,0.3c0,0.1,0,0.2,0.1,0.2
					c0,0.1,0.1,0.1,0.2,0.2l1.8-1c-0.1,0-0.2-0.1-0.3-0.1c-0.1,0-0.2-0.1-0.4-0.1c-0.1,0-0.3,0-0.4,0
					C265.2,322.1,265.1,322.1,264.9,322.2z"/>
				<path class="st11" d="M268.3,319.8c0-0.2,0-0.3,0.1-0.5c0.1-0.1,0.2-0.3,0.4-0.4c0.3-0.2,0.7-0.3,1-0.4c0.3,0,0.7-0.1,1,0
					c0-0.1,0-0.2,0-0.3c0-0.1,0.1-0.2,0.1-0.3c0.1-0.1,0.1-0.2,0.2-0.3c0.1-0.1,0.2-0.2,0.3-0.2c0.3-0.2,0.6-0.3,0.9-0.3
					c0.3-0.1,0.6-0.1,0.9,0c0.3,0,0.6,0.1,0.8,0.2c0.3,0.1,0.5,0.2,0.8,0.4l2.1,1.2c0.1,0,0.1,0.1,0.1,0.1c0,0,0,0.1-0.1,0.1
					l-0.6,0.3c-0.1,0-0.1,0-0.2,0c-0.1,0-0.2,0-0.2,0l-2.1-1.2c-0.4-0.2-0.7-0.3-1-0.3c-0.3,0-0.5,0.1-0.8,0.2
					c-0.2,0.1-0.3,0.3-0.3,0.4c0,0.2,0.1,0.3,0.5,0.5l2.1,1.2c0.1,0,0.1,0.1,0.1,0.1c0,0,0,0.1-0.1,0.1l-0.6,0.3c-0.1,0-0.1,0-0.2,0
					c-0.1,0-0.2,0-0.2-0.1l-2.1-1.2c-0.4-0.2-0.7-0.3-1-0.3c-0.3,0-0.5,0.1-0.8,0.2c-0.2,0.1-0.3,0.3-0.3,0.4c0,0.2,0.2,0.4,0.5,0.6
					l2.1,1.2c0.1,0,0.1,0.1,0.1,0.1c0,0,0,0.1-0.1,0.1l-0.6,0.3c-0.1,0-0.1,0-0.2,0c-0.1,0-0.2,0-0.2,0l-3.7-2.1
					c-0.1,0-0.1-0.1-0.1-0.1c0,0,0-0.1,0.1-0.1l0.6-0.3c0.1,0,0.1,0,0.2,0c0.1,0,0.2,0,0.2,0L268.3,319.8z"/>
				<path class="st11" d="M275.1,316.5c-0.1-0.1-0.2-0.2-0.2-0.3c0-0.1-0.1-0.2,0-0.4c0-0.1,0.1-0.3,0.2-0.5
					c0.1-0.2,0.3-0.3,0.6-0.5c0.3-0.2,0.5-0.3,0.8-0.4c0.3-0.1,0.6-0.1,0.9-0.1c0.3,0,0.6,0,0.9,0.1c0.3,0.1,0.6,0.2,0.8,0.3
					l2.3,1.3c0.1,0,0.1,0.1,0.1,0.1c0,0,0,0.1-0.1,0.1l-0.6,0.3c-0.1,0-0.1,0-0.2,0c-0.1,0-0.2,0-0.2-0.1l-0.3-0.1
					c0,0.2,0,0.3-0.1,0.5c-0.1,0.2-0.3,0.4-0.6,0.5c-0.2,0.1-0.5,0.2-0.7,0.3c-0.2,0.1-0.5,0.1-0.7,0.1c-0.2,0-0.5,0-0.7-0.1
					c-0.2,0-0.4-0.1-0.6-0.2c-0.4-0.2-0.5-0.4-0.5-0.7c0.1-0.3,0.3-0.5,0.6-0.8l1.1-0.9c-0.2-0.1-0.4-0.2-0.7-0.1
					c-0.2,0-0.5,0.1-0.7,0.2c-0.1,0.1-0.2,0.1-0.3,0.2c0,0.1-0.1,0.1-0.1,0.2c0,0.1,0,0.1,0,0.1c0,0-0.1,0.1-0.1,0.1l-0.7,0.4
					c-0.1,0-0.1,0-0.2,0C275.2,316.6,275.1,316.6,275.1,316.5z M278.6,317.1c0.2-0.1,0.3-0.2,0.4-0.3c0.1-0.1,0.1-0.2,0.1-0.3
					c0-0.1,0-0.2-0.1-0.3c-0.1-0.1-0.1-0.2-0.3-0.2l-0.1,0l-0.9,0.7c-0.2,0.1-0.3,0.3-0.3,0.4c0,0.1,0,0.2,0.1,0.2
					c0.1,0.1,0.2,0.1,0.4,0C278.3,317.2,278.4,317.2,278.6,317.1z"/>
				<path class="st11" d="M277.9,312c0.1,0,0.1,0,0.2,0c0.1,0,0.2,0,0.2,0l0.6,0.4c0.1,0,0.1,0.1,0.1,0.1c0,0,0,0.1-0.1,0.1
					l-0.7,0.4c-0.1,0-0.1,0-0.2,0c-0.1,0-0.2,0-0.2,0l-0.6-0.4c-0.1,0-0.1-0.1-0.1-0.1c0,0,0-0.1,0.1-0.1L277.9,312z M283.4,315
					c0.1,0,0.1,0.1,0.1,0.1c0,0,0,0.1-0.1,0.1l-0.6,0.3c-0.1,0-0.1,0-0.2,0.1c-0.1,0-0.2,0-0.2-0.1l-3.7-2.1c-0.1,0-0.1-0.1-0.1-0.1
					c0,0,0-0.1,0.1-0.1l0.6-0.3c0.1,0,0.1,0,0.2,0c0.1,0,0.2,0,0.2,0.1L283.4,315z"/>
				<path class="st11" d="M285.5,313.8c0.1,0,0.1,0.1,0.1,0.1c0,0,0,0.1-0.1,0.1l-0.6,0.3c-0.1,0-0.1,0-0.2,0c-0.1,0-0.2,0-0.2,0
					l-5.1-3c-0.1,0-0.1-0.1-0.1-0.1c0,0,0-0.1,0.1-0.1l0.6-0.3c0.1,0,0.1,0,0.2,0c0.1,0,0.2,0,0.2,0L285.5,313.8z"/>
			</g>
			<path class="st11" d="M254.4,337.6l77.8-44.9c1-0.6,2.4-0.6,3.1-0.2c0.8,0.4,0.6,1.3-0.3,1.8l-77.8,44.9c-1,0.6-2.4,0.6-3.1,0.2
				C253.3,339,253.4,338.2,254.4,337.6z"/>
			<path class="st11" d="M259.9,340.8l77.8-44.9c1-0.6,2.4-0.6,3.1-0.2c0.8,0.4,0.6,1.3-0.3,1.8l-77.8,44.9c-1,0.6-2.4,0.6-3.1,0.2
				C258.7,342.2,258.9,341.3,259.9,340.8z"/>
		</g>
	</g>
</g>
<g id="Character">
	<g id="Character_Envelope">
		<g>
			<polygon id="Shadow_5_" class="st1" points="144.4,369.9 103.8,346.5 285.7,241.4 327.2,264.4 			"/>
			<g id="Back">
				<path id="XMLID_489_" class="st17" d="M133.4,223.7l173.1-99.9l6.9,4c1.8,1,3.3,3.6,3.3,5.6v127.7c0,2.1-1.5,4.6-3.3,5.6
					l-166.5,96.2c-1.8,1-4.7,1-6.5,0l-3.7-2.1c-1.8-1-3.3-3.6-3.3-5.6L133.4,223.7z"/>
				<path id="XMLID_471_" class="st14" d="M133.4,223.7l173.1-99.9l6.9,4c1.8,1,3.3,3.6,3.3,5.6v127.7c0,2.1-1.5,4.6-3.3,5.6
					l-166.5,96.2c-1.8,1-4.7,1-6.5,0l-3.7-2.1c-1.8-1-3.3-3.6-3.3-5.6L133.4,223.7z"/>
				<path id="XMLID_470_" class="st17" d="M305.5,112.6l0.7-0.4l-2.7-1.6v0c-0.2-0.1-0.5-0.3-0.7-0.3l-76.2-28.2
					c-2-0.7-4.6,0.1-5.8,1.9l-85.2,124.4c-1.2,1.8-2.2,5-2.2,7.1c0,3.6,0,8.3,0,8.3l2.6,1.5l170.4-101.4v-8.3
					C306.4,114.5,306.1,113.5,305.5,112.6z"/>
				<path id="XMLID_469_" class="st18" d="M224.3,84.5c-0.3,0.3-0.6,0.6-0.9,0.9l-85.2,124.4c-0.6,0.9-1.2,2.2-1.6,3.6l-2.6-1.5
					c0.2-0.6,0.4-1.3,0.7-1.9c0,0,0,0,0-0.1c0.1-0.3,0.2-0.5,0.4-0.8c0,0,0-0.1,0.1-0.1c0.1-0.3,0.3-0.5,0.5-0.8l85.2-124.4
					c0.1-0.2,0.3-0.4,0.4-0.5c0.1-0.1,0.3-0.3,0.5-0.4L224.3,84.5z"/>
				<path id="XMLID_465_" class="st19" d="M306.2,112.2c-0.2-0.1-0.5-0.3-0.7-0.4l-76.2-28.2c-1.6-0.6-3.6-0.2-5,0.9l-2.6-1.5
					c1.4-1.1,3.3-1.5,5-0.9l76.2,28.2c0.2,0.1,0.5,0.2,0.7,0.4L306.2,112.2z"/>
				<g id="XMLID_408_">
					<path id="XMLID_464_" class="st17" d="M135.1,209.1c0.1-0.3,0.3-0.5,0.5-0.7C135.4,208.6,135.3,208.8,135.1,209.1z"/>
					<path id="XMLID_1103_" class="st17" d="M221.2,83.4c0.1-0.1,0.3-0.3,0.5-0.4C221.5,83.1,221.4,83.3,221.2,83.4z"/>
					<path id="XMLID_463_" class="st17" d="M134,211.9c0.2-0.7,0.4-1.3,0.7-1.9C134.4,210.6,134.2,211.3,134,211.9z"/>
					<path id="XMLID_449_" class="st17" d="M134.7,210c0.1-0.3,0.2-0.5,0.4-0.7C134.9,209.5,134.8,209.7,134.7,210z"/>
					<path id="XMLID_432_" class="st14" d="M134.7,210C134.7,210,134.7,210,134.7,210C134.7,210,134.7,210,134.7,210z"/>
					<polygon id="XMLID_1097_" class="st14" points="134,211.9 134,211.9 134,211.9 					"/>
					<polygon id="XMLID_431_" class="st14" points="221.7,83 221.7,83 221.7,83 					"/>
					<path id="XMLID_417_" class="st14" d="M135.1,209.2c0,0,0-0.1,0.1-0.1C135.1,209.1,135.1,209.2,135.1,209.2z"/>
					<path id="XMLID_409_" class="st14" d="M220.8,83.9c0.1-0.2,0.3-0.4,0.4-0.5C221.1,83.6,220.9,83.8,220.8,83.9z"/>
				</g>
				<path id="XMLID_402_" class="st17" d="M223.4,85.5l-85.2,124.4c-1.2,1.8-2.2,5-2.2,7.1c0,3.6,0,8.3,0,8.3l173.1-99.9l0-8.3
					c0-2.1-1.6-4.5-3.6-5.2l-76.2-28.2C227.3,82.9,224.6,83.7,223.4,85.5z"/>
				<path id="XMLID_1091_" class="st20" d="M309.1,117.1c0-1-0.4-2-0.9-2.9l-171.5,99.3c0,0,0,0,0,0c-0.4,1.2-0.6,2.5-0.6,3.5
					c0,3.6,0,8.3,0,8.3l173.1-99.9L309.1,117.1z"/>
			</g>
			<g id="Paper">
				<path class="st17" d="M301.7,82c0-0.9-0.3-1.5-0.8-1.8c-0.5-0.3-4.8-2.8-5.3-3c-0.5-0.3-1.2-0.3-2,0.2l-141.9,82
					c-1.6,0.9-2.8,3.1-2.8,4.9l0,170c0,0.9,0.3,1.5,0.8,1.8c0.5,0.3,4.8,2.7,5.3,3c0.5,0.3,1.2,0.3,2-0.2l141.9-82
					c1.6-0.9,2.8-3.1,2.8-4.9L301.7,82z"/>
				<path class="st21" d="M301.7,82c0-0.9-0.3-1.5-0.8-1.8c-0.5-0.3-4.8-2.8-5.3-3c-0.5-0.3-1.2-0.3-2,0.2l-141.9,82
					c-1.6,0.9-2.8,3.1-2.8,4.9l0,170c0,0.9,0.3,1.5,0.8,1.8c0.5,0.3,4.8,2.7,5.3,3c0.5,0.3,1.2,0.3,2-0.2l141.9-82
					c1.6-0.9,2.8-3.1,2.8-4.9L301.7,82z"/>
				<path class="st17" d="M156.9,338.8l141.9-82c1.6-0.9,2.8-3.1,2.8-4.9l0-170c0-1.8-1.3-2.5-2.8-1.6l-141.9,82
					c-1.6,0.9-2.8,3.1-2.8,4.9l0,170C154.1,339,155.4,339.7,156.9,338.8z"/>
				<path class="st22" d="M156.9,338.8l141.9-82c1.6-0.9,2.8-3.1,2.8-4.9l0-170c0-1.8-1.3-2.5-2.8-1.6l-141.9,82
					c-1.6,0.9-2.8,3.1-2.8,4.9l0,170C154.1,339,155.4,339.7,156.9,338.8z"/>
				<path class="st17" d="M154.1,337.2c0,0.8,0.2,1.4,0.7,1.7c-0.9-0.5-4.6-2.7-5.1-2.9c-0.5-0.3-0.8-0.9-0.8-1.8v-170
					c0-0.9,0.3-1.9,0.8-2.8l5.3,3c-0.5,0.9-0.8,1.9-0.8,2.8V337.2z"/>
				<path class="st23" d="M154.1,337.2c0,0.8,0.2,1.4,0.7,1.7c-0.9-0.5-4.6-2.7-5.1-2.9c-0.5-0.3-0.8-0.9-0.8-1.8v-170
					c0-0.9,0.3-1.9,0.8-2.8l5.3,3c-0.5,0.9-0.8,1.9-0.8,2.8V337.2z"/>
				<path class="st20" d="M154.1,337.2c0,0.8,0.2,1.4,0.7,1.7c-0.9-0.5-4.6-2.7-5.1-2.9c-0.5-0.3-0.8-0.9-0.8-1.8v-170
					c0-0.9,0.3-1.9,0.8-2.8l5.3,3c-0.5,0.9-0.8,1.9-0.8,2.8V337.2z"/>
			</g>
			<g id="Front">
				<path id="XMLID_1018_" class="st17" d="M312.2,262.8c-0.1,0.1-0.1,0.2-0.2,0.3l-72.1-22.9c-5.7-2.5-12.3-0.5-15.6,4.8
					l-77.1,114.6l-2.9,1.6l0,0c-0.9,0.5-1.6,0.5-2.2,0.2l79.3-118.1c3.3-5.3,9.9-7.3,15.6-4.8L312.2,262.8z"/>
				<path id="XMLID_1017_" class="st24" d="M217.3,256.2l0.2-0.2l-70.2,103.5l-2.9,1.6l0,0c-0.9,0.5-1.6,0.5-2.2,0.2l72.3-106.9
					L217.3,256.2z"/>
				<path id="XMLID_330_" class="st24" d="M312.2,262.8c-0.1,0.1-0.1,0.2-0.2,0.3l-72.1-22.9c-5.7-2.5-12.3-0.5-15.6,4.8l-2.9-1.7
					c3.3-5.2,9.9-7.3,15.6-4.8L312.2,262.8z"/>
				<path id="XMLID_1011_" class="st17" d="M316.6,132.6L316.6,132.6c-0.2-0.9-0.7-1.2-1.3-0.8c-0.2,0.2-0.5,0.5-0.8,0.9l-0.4,0.5
					l-71.2,108.2l-10.6,14.8c-1.2,1.7-3.8,2.7-5.9,2.2l-9.2-2.2l-70-25.8c-0.5-0.1-1-0.1-1.4-0.1c-0.2,0-0.4,0.1-0.5,0.2l2.6-1.5
					l67.1,24.6l8.8,3.2c2,0.5,4.6-0.5,5.9-2.2l10.6-14.8l71.5-108.7c0.2-0.3,0.5-0.6,0.8-0.7l-6.2-3.6l2.6-1.5l4.3,2.5
					C314.9,128.7,316.2,130.8,316.6,132.6z"/>
				<path id="XMLID_1010_" class="st24" d="M242.9,241.4l-10.6,14.8c-1.2,1.7-3.8,2.7-5.9,2.2l-9.2-2.2l0.2-0.2l0.4-0.7l6,1.4
					c2,0.5,4.6-0.5,5.9-2.2l10.5-14.6L242.9,241.4z"/>
				<path id="XMLID_1009_" class="st18" d="M313.4,127.8l-4.3-2.5l-2.6,1.5l6.2,3.6c0,0,0,0,0,0l0,0c-0.3,0.2-0.6,0.4-0.8,0.7
					l-71.5,108.7l-0.1,0.1v0l2.6,1.4l71.2-108.2l0.4-0.5c0.3-0.4,0.6-0.7,0.8-0.9c0.6-0.4,1.1-0.2,1.3,0.8h0
					C316.2,130.7,314.9,128.7,313.4,127.8z"/>
				<path id="XMLID_1008_" class="st17" d="M148.7,232.5l-15.3-8.8l0,131.4c0,2.1,1.5,4.6,3.3,5.6l3.7,2.1c1.8,1,4.7,1,6.5,0
					l1.8-1.1V232.5z"/>
				<path id="XMLID_329_" class="st6" d="M148.7,232.5l-15.3-8.8l0,131.4c0,2.1,1.5,4.6,3.3,5.6l3.7,2.1c1.8,1,4.7,1,6.5,0l1.8-1.1
					V232.5z"/>
				<path id="XMLID_324_" class="st17" d="M316.6,133.5v127.7c0,1.1-0.4,2.3-1,3.3c-0.5,0.9-1.2,1.6-1.9,2.1l-0.1,0.1
					c-0.1,0.1-0.1,0.1-0.2,0.1l-166.5,96.1l0,0c-0.9,0.5-1.6,0.6-2.2,0.3c-0.5-0.3-0.9-0.8-1-1.6c0-0.2,0-0.4,0-0.6V233.4
					c0-2.1,1.6-3.4,3.7-2.9l70,25.8l9.2,2.2c2,0.5,4.7-0.5,5.9-2.2l10.6-14.8l71.2-108.2l0.4-0.5
					C315.6,131.1,316.6,131.4,316.6,133.5z"/>
				<path id="XMLID_1004_" class="st17" d="M313.4,266.8c0.1,0,0.1-0.1,0.2-0.1l0.1-0.1c0.7-0.5,1.4-1.3,1.9-2.1c0.6-1,1-2.2,1-3.2
					l-73.7-19.7l49.4,37.5L313.4,266.8z"/>
				<path id="XMLID_318_" class="st14" d="M313.4,266.8c0.1,0,0.1-0.1,0.2-0.1l0.1-0.1c0.7-0.5,1.4-1.3,1.9-2.1c0.6-1,1-2.2,1-3.2
					l-73.7-19.7l49.4,37.5L313.4,266.8z"/>
				<path id="XMLID_317_" class="st17" d="M143.6,361c0,1.1,0.4,1.8,1,2.1c0.6,0.3,1.4,0.2,2.2-0.3l0,0l57.3-33.1l13.1-73.5
					l-73.7,102.6L143.6,361z"/>
				<path id="XMLID_279_" class="st6" d="M224.3,245l-79.7,118.2c-0.6-0.3-1-1.1-1-2.1l0-2.1l77.9-115.5c0,0,0,0,0,0L224.3,245z"/>
				<path id="XMLID_992_" class="st17" d="M315.6,264.4c-0.5,0.9-1.2,1.6-1.9,2.1l-0.1,0.1l-166.8,96.3l0,0
					c-0.9,0.5-1.6,0.6-2.2,0.3L224.3,245c3.3-5.3,10-7.3,15.7-4.8L315.6,264.4z"/>
				<path id="XMLID_966_" class="st6" d="M134,211.9l2.6,1.5c-0.4,1.2-0.6,2.5-0.6,3.6c0,3.6,0,8.3,0,8.3l-2.6-1.5c0,0,0-4.7,0-8.3
					C133.4,214.4,133.6,213.2,134,211.9z"/>
				<polygon id="XMLID_277_" class="st17" points="147.9,229.1 145.3,230.6 142.6,229 136,225.3 138.6,223.7 				"/>
				<path id="XMLID_276_" class="st18" d="M148,229.1l-9.5-5.4l-2.6,1.5l6.6,3.8l2.7,1.5l0,0c0.2-0.1,0.3-0.1,0.5-0.2
					c0.4-0.1,0.9-0.1,1.4,0.1l5.3,2l61.1,22.5l1-1.4L148,229.1z"/>
			</g>
		</g>
		<g id="Character_12_" class="st2">
			<path class="st25" d="M205.9,208.7c-0.6,15.8,0.4,49.7,0.4,49.7s16.8,5.1,28.2,3.2c11.4-1.9,35.8-19.2,35.8-19.2l-4.1-36.7
				L205.9,208.7z"/>
			<path class="st26" d="M244.9,257.9l2.7-25.8c10.7-6.4,14.2-15.2,14.2-15.2c-9.7,12.7-19.9,10.7-19.9,10.7v31.7
				C242.8,258.8,243.8,258.3,244.9,257.9z"/>
			<path id="XMLID_880_" class="st27" d="M272.9,161.1c2.7-13.8,3.9-32.1-8-35.4c-3.1-0.9-11.1-0.3-11.1-0.3l-12.9,0.6
				c-7.2,0.9-17.3,2.3-19.9,3c-6.9,1.7-9,13-12.1,38.1c-1.9,15.7-3.6,28-3.6,43.3c12.7,11.4,52.3,6.9,61.3-0.5
				C267,192.6,268,186.2,272.9,161.1z"/>
			<g class="st3">
				<path class="st8" d="M238.7,121.3c-0.1,2.5,2.8,6.8,7.2,9.7c4.4,3,8.2,4.2,8.7,5.4c-2.1,0.4-4,1.4-5.6,5c-1.5,3.4-1.5,3.6-6.6,0
					c-5.1-3.6-9.7-11.7-9.7-14.4c0-2.7,4-8,6-7.5L238.7,121.3z"/>
				<path class="st8" d="M254.7,136.5c1.5-1.6,2.9-5.7,3.1-7.5c0.2-1.8,0.7-6.4,0.7-6.4s1.2,0.3,1.8,1.1c0.6,0.8,3.3,6.5,3.2,9.6
					c-0.1,3.1-0.8,7.4-1.9,9.2c-1.1,1.8-1.8-1.4-2.5-2.6C258.1,138.3,256.9,136.6,254.7,136.5z"/>
				<path class="st8" d="M252.6,140.1c0,0,0.2,11.3-0.8,17.4c0,0,3.4,0.6,6.7-0.2c0,0-1.7,2.1-8.1,1.2
					C250.5,158.4,252.5,146.6,252.6,140.1z"/>
			</g>
			<g id="XMLID_796_" class="st3">
				<g id="XMLID_809_">
					<path class="st9" d="M279.5,87.8c-0.1-9.9-8.3-17.9-18.3-17.7c-9.3,0.1-16.8,7.3-17.6,16.4l-8.2-5.8c0,0-3-0.5-5.3,1.9
						c-2.2,2.4-0.9,9.6,2.1,16.7c0,0,2.9,12.9,4.1,15c1.1,2.1,3.4,2.7,3.4,2.7l-0.3-7.9l32.7-2.3l-3.2-2.3
						C275.2,101.6,279.6,95.2,279.5,87.8z"/>
					<path id="XMLID_838_" class="st28" d="M239,99.7c-1,0.6-2-1.5-3.9-2.7c-1.6-1-5.2-2.6-7.6,1.3c-2.6,4.3,2.1,10.2,5.3,11.4
						c4.8,1.8,6.5-2,6.5-2l-1,20c6.5,11.9,25.9,11.1,19.3,1.2l0.8-7.7c0,0,5.2,0.7,7.7,0.3c4.2-0.7,6.8-4.1,8-8.6
						c1.9-7.3,2.6-13.2,0.7-27.5c-2.1-15.7-20.4-15.6-30.1-9.2C235,82.6,239,99.7,239,99.7z"/>
					<path class="st9" d="M278.9,70.9c-1.3-0.7-2.9-0.8-4.4-0.5c0.3-2.3-1.2-4.5-3.2-5.4c-2.4-1.1-4.6-0.7-6.8,0.9
						c0.4-1.6-1-3.2-2.6-3.6c-1.6-0.4-3.3,0.2-4.8,0.8c-2.3,0.9-4.6,1.9-6.9,2.6c-4.1,1.4-8.5,2.2-12.2,4.4c-0.9,0.5-1.7,1.1-2.3,2
						c-0.8,1.2-1.1,2.6-1,4.1c0,0.5,0.1,0.9,0.2,1.4c-0.3-0.3-0.6-0.6-1-0.8c-1.8-0.9-3.9-0.2-4.7,1.6l6.2,3.2
						c-0.2,1.2-0.3,2.5-0.4,3.7c-0.3,3.3-1,7.1-0.2,10.4c0.1,0.4,0.1,0.8,0.4,1.1c0,0,1.6,1.2,3.2,3.1c0.5,0.6,1.1,1.5,1.8,1.8
						c0.8,0.2,1.9-0.2,2.1-1c0.2-0.5,0.1-1,0.1-1.5c-0.2-2-0.4-4.1-0.6-6.1c-0.1-0.5-0.1-1.1,0.1-1.6c0.3-0.7,0.9-1.1,1.5-1.6
						c1.4-1.2,2.3-3,2.4-4.9c0-0.6,0-1.2,0.2-1.7c0.1-0.4,0.5-1.1,1-1.1c1,0,6.1,1.1,7.4,1.3c6.8,0.9,14.1,1.1,20-2.2
						c2.3-1.3,6.3-4,6.7-6.9C281.1,73.1,280.2,71.6,278.9,70.9z"/>
					<path id="XMLID_810_" class="st29" d="M258.6,121.3c0,0-9.4-1.7-12.7-3.4c-2.2-1.1-4-3.1-4.6-4.4c0,0,0.7,2.8,2.6,5.2
						c2.4,3,14.3,5.1,14.3,5.1L258.6,121.3z"/>
				</g>
				<g id="XMLID_797_">
					<path id="XMLID_808_" class="st9" d="M258.2,98c0,1-0.8,1.8-1.7,1.8c-1,0-1.8-0.8-1.8-1.8c0-1,0.8-1.8,1.7-1.8
						C257.3,96.2,258.1,97,258.2,98z"/>
					<path id="XMLID_806_" class="st9" d="M254.7,91.5l-4.1,2c-0.5-1.2,0-2.6,1.1-3.1C252.9,89.8,254.2,90.3,254.7,91.5z"/>
					<path id="XMLID_804_" class="st30" d="M254.8,109l7.4,2.7c-0.7,2.1-2.9,3.3-5,2.5C255.2,113.5,254.1,111.1,254.8,109z"/>
					<path class="st29" d="M259.5,114.3c-0.3-2.1-2.2-3.6-4.3-3.3c-0.2,0-0.3,0.1-0.5,0.1c0.3,1.4,1.2,2.6,2.6,3.1
						C258,114.5,258.8,114.5,259.5,114.3z"/>
					<path id="XMLID_803_" class="st9" d="M274.2,92.8l-4-2.1c0.5-1.1,1.9-1.5,3-0.9C274.3,90.4,274.8,91.8,274.2,92.8z"/>
					<path id="XMLID_799_" class="st9" d="M272.2,97.7c0,1-0.8,1.8-1.7,1.8c-1,0-1.8-0.8-1.8-1.8c0-1,0.8-1.8,1.7-1.8
						C271.4,95.9,272.2,96.7,272.2,97.7z"/>
					<polygon id="XMLID_798_" class="st29" points="263.3,96.6 263.6,108 270.3,106.4 					"/>
				</g>
			</g>
		</g>
		<g id="Arm" class="st2">
			<path class="st31" d="M221,129c-8.5,0.6-14.3,2.6-19.8,15.8c-3.5,8.5-17.4,39-18.7,44.1c-1.6,5.9-5.1,51-5.1,51l8.1,3
				c0,0-2.8,9.7-5.1,15.2c-2.7,6.4,10.5,5,14.7-0.8c4.2-5.8,7.1-13.6,4.8-16.3c-3.1-3.6-6.4-5.9-6.4-5.9l8.9-40.2l18.6-39.5
				C220.9,155.4,230.3,136,221,129z"/>
			<path class="st32" d="M193.5,235.1c-4.3-2.4-8.2-2.3-8.2-2.3s4.3-1.4,8.6,0L193.5,235.1z"/>
			<path class="st25" d="M222.9,128.6c-4.8,0-13.7-0.3-19.4,10.1c-5.8,10.4-13.9,30.2-13.9,30.2s3.4,8.3,21.5,10.1l13.9-29.5
				C225,149.5,228.4,135.9,222.9,128.6z"/>
		</g>
		<g id="Arm_1_">
			<g id="XMLID_812_">
				<path class="st33" d="M148.3,287.1c18.6,1.4,48.5,3.2,62.2,2.8c1.4-13.7,2.8-40.4,3.4-46.5c0.8-7.7,8.4-24.5,8.4-24.5l18.2,16.4
					c0,0,5.9,62.1,2.6,76.5c-3.5,15.2-12.7,16.1-36.8,20c-22.7,3.7-48.3,6.5-48.3,6.5c-18.5-35.6-33.1-51.8-52.6-46.8
					C116.9,285.8,132.7,285.9,148.3,287.1z"/>
				<path class="st34" d="M196.3,289.8c-5.2,6-5.8,33.6,4.6,43.8l-44.6,5.9c-11.3-25.6-29.4-54.3-52.3-46.8
					c-1.7,0.6-3.9,1.7-6.1,3.1l0,0c9-7.4,15.4-11.3,30.6-10.5C143.5,286,196.3,289.8,196.3,289.8z"/>
				<path class="st35" d="M210.5,289.9c-2,7.4,1.6,16.1,2.7,19.7c0,0-6.9-8.1-6.6-19.6L210.5,289.9z"/>
				<g id="XMLID_813_">
					<g id="XMLID_1151_">
						<path id="XMLID_879_" class="st36" d="M213.1,193l6.8-14.7c0,0,42.9,61.1,44.3,63c1.4,2,5.1,2.4,5.1,2.4l-6.8,14.7
							c0,0-3.7-0.4-5.1-2.4C256,254.1,213.1,193,213.1,193z"/>
						<path id="XMLID_878_" class="st33" d="M237.8,203.8c0,0,3.8-1.4,8.5,2.8c4.7,4.3,11.9,13.6,11.1,18.8
							c-0.8,5.2-3.8,9.3-7.3,9.9c-6.4,1.2-11.7-10-9.3-15c3.9-8,0.4-11.6,0.4-11.6L237.8,203.8z"/>
						<path id="XMLID_877_" class="st37" d="M199.1,202.7l9.2,2.8l30.3,43.1l0.6,12l23.4-2.1c-2.4-0.3-4-1.1-5.1-2.4L218.7,201
							L199.1,202.7z"/>
						<polygon id="XMLID_876_" class="st38" points="239.1,260.5 241,263.2 264.4,261.1 262.5,258.4 						"/>
						<polygon id="XMLID_875_" class="st38" points="264.4,261.1 271.2,246.4 269.3,243.8 262.5,258.4 						"/>
						<polygon id="XMLID_874_" class="st18" points="264.4,261.1 271.2,246.4 269.3,243.8 262.5,258.4 						"/>
					</g>
					<g>
						<g id="XMLID_853_">
							<path id="XMLID_873_" class="st38" d="M182.1,170.1L182.1,170.1c-2.6,0.9-4.6,3.6-5.2,7.8l0,0.2c-1.3,8.3,2.8,19.2,9.3,24.5
								l0.1,0.1c3.4,2.7,6.7,3.4,9.3,2.3l0,0l11.5-4.3l-14.3-34.5L182.1,170.1z"/>
							<path id="XMLID_872_" class="st23" d="M182.1,170.1L182.1,170.1c-2.6,0.9-4.6,3.6-5.2,7.8l0,0.2c-1.3,8.3,2.8,19.2,9.3,24.5
								l0.1,0.1c3.4,2.7,6.7,3.4,9.3,2.3l0,0l11.5-4.3l-14.3-34.5L182.1,170.1z"/>
							<path id="XMLID_871_" class="st20" d="M195.5,205L195.5,205l11.5-4.3l-4.8-11.4l-20.9,8c1.4,2.1,2.9,4,4.7,5.4l0.1,0.1
								C189.6,205.4,192.9,206.1,195.5,205z"/>
							<path id="XMLID_870_" class="st38" d="M202.7,157.5L202.7,157.5c-2.9,1.1-5.1,4-6.1,8.3c-0.1,0.5-0.2,0.9-0.3,1.4
								c-0.1,0.6-0.2,1.2-0.2,1.8c-0.1,1-0.1,2-0.1,3c0,1.9,0.3,3.8,0.7,5.7c1.1,5.2,3.3,10.4,6.3,14.6c1.5,2.1,3.2,4,5.1,5.5
								c4,3.2,7.9,4.2,11.1,3.1l-10.9,4.2l0,0c-4,1.3-8.6,0.7-12.5-2.5c-1.8-1.4-3.4-3.2-4.9-5.3c-3.1-4.3-5.4-9.6-6.5-14.9
								c-0.4-1.9-0.6-3.9-0.7-5.7c0-1,0-2,0.1-3c0-0.6,0.1-1.2,0.2-1.8c0.1-0.5,0.2-1,0.3-1.4c1.1-4.2,3.9-7.3,7.4-8.8l0,0l0.3-0.1
								c0.1,0,0.3-0.1,0.4-0.1L202.7,157.5z"/>
							<path id="XMLID_869_" class="st18" d="M208.2,205.2L208.2,205.2c-4,1.3-8.6,0.7-12.5-2.5c-1.8-1.4-3.4-3.2-4.9-5.3l12.2-5
								c1.5,2.1,3.2,4,5.1,5.5c4,3.2,7.9,4.2,11.1,3.1L208.2,205.2z"/>
							<path id="XMLID_868_" class="st38" d="M214.1,160.5c8.1,6.6,13.4,20.4,11.7,30.7c-0.8,5.2-3.3,8.6-6.5,9.8
								c-0.1,0-0.1,0-0.2,0.1c-3.2,1.1-7.1,0.2-11.1-3.1c-8.1-6.6-13.4-20.4-11.7-30.7c0.8-5.2,3.2-8.5,6.4-9.7
								C206,156.3,210,157.2,214.1,160.5z"/>
							<path id="XMLID_866_" class="st14" d="M214.1,160.5c8.1,6.6,13.4,20.4,11.7,30.7c-0.8,5.2-3.3,8.6-6.5,9.8
								c-0.1,0-0.1,0-0.2,0.1c-3.2,1.1-7.1,0.2-11.1-3.1c-8.1-6.6-13.4-20.4-11.7-30.7c0.8-5.2,3.2-8.5,6.4-9.7
								C206,156.3,210,157.2,214.1,160.5z"/>
							<path id="XMLID_863_" class="st38" d="M243.8,119.7c0,0-3.9,18.2,6.2,44.7c2,5.2,4.2,9.8,6.4,13.9
								c9,16.5,18.7,23.7,18.7,23.7c-12.5-3.8-26.1-7-40-5.1c-8.6,1.2-16.1,3.1-16.1,3.1l0,0c-2.9,1.1-6.6,0.2-10.2-2.8
								c-2.4-2-4.6-4.6-6.3-7.5c-1.1-1.9-2.1-3.9-2.9-6c-2.1-5.4-2.9-11.2-2.1-16.2c0.8-4.7,2.9-7.8,5.8-8.9l0,0
								c0,0,6.9-3.5,14.1-8.4C228.9,142.2,237,130.8,243.8,119.7z"/>
							<path id="XMLID_862_" class="st23" d="M243.8,119.7c0,0-3.9,18.2,6.2,44.7c2,5.2,4.2,9.8,6.4,13.9
								c9,16.5,18.7,23.7,18.7,23.7c-12.5-3.8-26.1-7-40-5.1c-8.6,1.2-16.1,3.1-16.1,3.1l0,0c-2.9,1.1-6.6,0.2-10.2-2.8
								c-2.4-2-4.6-4.6-6.3-7.5c-1.1-1.9-2.1-3.9-2.9-6c-2.1-5.4-2.9-11.2-2.1-16.2c0.8-4.7,2.9-7.8,5.8-8.9l0,0
								c0,0,6.9-3.5,14.1-8.4C228.9,142.2,237,130.8,243.8,119.7z"/>
							<path id="XMLID_861_" class="st20" d="M256.4,178.2c9,16.5,18.7,23.7,18.7,23.7c-12.5-3.8-26.1-7-40-5.1
								c-8.6,1.2-16.1,3.1-16.1,3.1l0,0c-2.9,1.1-6.6,0.2-10.2-2.8c-2.4-2-4.6-4.6-6.3-7.5C215.2,183.8,237,175.4,256.4,178.2z"/>
							<path id="XMLID_860_" class="st38" d="M281.9,110.4c8.5,6.9,15.6,17.1,20.7,28.4l0,0c6.4,14.5,9.4,30.9,7.2,44.7
								c-4,24.6-22.9,31.8-42.2,16.1c-4.4-3.6-8.5-8.1-12.1-13.2c-8.8-12.5-14.8-28.6-16.2-43.7c-0.2-2.1-0.3-4.2-0.3-6.3
								c0-0.9,0-1.7,0-2.6l0,0c0-1.2,0.1-2.4,0.2-3.6c0.1-1.2,0.3-2.5,0.5-3.7C243.6,101.8,262.5,94.6,281.9,110.4z"/>
							<path id="XMLID_858_" class="st18" d="M302.5,138.8c6.4,14.5,9.4,30.9,7.2,44.7c-4,24.6-22.9,31.8-42.2,16.1
								c-4.4-3.6-8.5-8.1-12.1-13.2l0,0c3.4,0.9,10.3-0.3,9.3-4.1c3.2,4.5,6.8,8.5,10.7,11.7c5.6,4.5,11.1,6.9,15.9,7
								c4.1,0,7.6-1.7,10.4-5.1c2.7-3.3,4.6-8.2,5.6-14c1.9-11.8-0.4-25.9-5.6-38.8C301.8,143,303.5,142.7,302.5,138.8z"/>
							<path id="XMLID_855_" class="st38" d="M281.3,113.3c8.5,7,15.7,17.8,20.5,29.7c5.2,12.9,7.5,27,5.6,38.8
								c-0.9,5.9-2.9,10.7-5.6,14c-2.8,3.4-6.3,5.1-10.4,5.1c-4.8,0-10.3-2.5-15.9-7c-3.9-3.2-7.5-7.1-10.7-11.7
								c-1.2-1.7-2.4-3.5-3.5-5.3c-1.9-3.2-3.7-6.7-5.2-10.2c-0.3-0.7-0.6-1.5-0.9-2.2c-0.5-1.2-1-2.4-1.4-3.7
								c-1.5-4.2-2.7-8.5-3.5-12.8c0,0,0-0.1,0-0.1c-0.6-2.9-0.9-5.7-1.2-8.5c-0.2-2-0.2-4-0.2-5.9c0-0.8,0-1.6,0.1-2.4
								c0.1-1,0.1-1.9,0.2-2.9c0.1-0.9,0.2-1.8,0.4-2.7c0.9-5.9,2.9-10.7,5.6-14C260.9,104.1,270.8,104.8,281.3,113.3z"/>
							<path id="XMLID_854_" class="st39" d="M281.3,113.3c8.5,7,15.7,17.8,20.5,29.7c5.2,12.9,7.5,27,5.6,38.8
								c-0.9,5.9-2.9,10.7-5.6,14c-2.8,3.4-6.3,5.1-10.4,5.1c-4.8,0-10.3-2.5-15.9-7c-3.9-3.2-7.5-7.1-10.7-11.7
								c-1.2-1.7-2.4-3.5-3.5-5.3c-1.9-3.2-3.7-6.7-5.2-10.2c-0.3-0.7-0.6-1.5-0.9-2.2c-0.5-1.2-1-2.4-1.4-3.7
								c-1.5-4.2-2.7-8.5-3.5-12.8c0,0,0-0.1,0-0.1c-0.6-2.9-0.9-5.7-1.2-8.5c-0.2-2-0.2-4-0.2-5.9c0-0.8,0-1.6,0.1-2.4
								c0.1-1,0.1-1.9,0.2-2.9c0.1-0.9,0.2-1.8,0.4-2.7c0.9-5.9,2.9-10.7,5.6-14C260.9,104.1,270.8,104.8,281.3,113.3z"/>
						</g>
						<g id="XMLID_847_">
							<path id="XMLID_851_" class="st38" d="M265,143l11.2,26.8c-3.6,2.1-9.5,5.7-13.9,8.9c-0.4-0.6-0.8-1.2-1.1-1.8
								c-1.9-3.2-3.7-6.7-5.2-10.2c-0.3-0.7-0.6-1.5-0.9-2.2c-0.5-1.2-1-2.4-1.4-3.7c-1.5-4.2-2.7-8.5-3.5-12.8c0,0,0-0.1,0-0.1
								c-0.1-0.6-0.2-1.3-0.3-1.9C257.1,145.4,265,143,265,143z"/>
						</g>
						<g id="XMLID_844_" class="st40">
							<path id="XMLID_1132_" class="st7" d="M265,143l11.2,26.8c-3.6,2.1-9.5,5.7-13.9,8.9c-0.4-0.6-0.8-1.2-1.1-1.8
								c-1.9-3.2-3.7-6.7-5.2-10.2c-0.3-0.7-0.6-1.5-0.9-2.2c-0.5-1.2-1-2.4-1.4-3.7c-1.5-4.2-2.7-8.5-3.5-12.8c0,0,0-0.1,0-0.1
								c-0.1-0.6-0.2-1.3-0.3-1.9C257.1,145.4,265,143,265,143z"/>
						</g>
						<g id="XMLID_842_">
							<path id="XMLID_843_" class="st38" d="M276.9,168.9c-2,2.4-5.1,2.3-8.3-0.4l-0.1-0.1c-5.1-4.2-8.4-12.9-7.4-19.4l0-0.1
								c0.3-1.7,0.9-3.2,1.7-4.2c2-2.4,5.1-2.3,8.3,0.4l0.1,0.1c5.1,4.2,8.4,12.9,7.4,19.4l0,0.1
								C278.3,166.4,277.7,167.9,276.9,168.9L276.9,168.9z"/>
						</g>
						<g id="XMLID_840_" class="st41">
							<path id="XMLID_841_" class="st7" d="M276.9,168.9c-2,2.4-5.1,2.3-8.3-0.4l-0.1-0.1c-5.1-4.2-8.4-12.9-7.4-19.4l0-0.1
								c0.3-1.7,0.9-3.2,1.7-4.2c2-2.4,5.1-2.3,8.3,0.4l0.1,0.1c5.1,4.2,8.4,12.9,7.4,19.4l0,0.1
								C278.3,166.4,277.7,167.9,276.9,168.9L276.9,168.9z"/>
						</g>
					</g>
					<g id="XMLID_820_">
						<g id="XMLID_837_">
							<path id="XMLID_1125_" class="st1" d="M230.3,111.8c-1.1,1.3-3,1.5-4.3,0.4l-23.1-18.8c-1.3-1.1-1.5-3-0.4-4.3
								c1.1-1.3,3-1.5,4.3-0.4l23.1,18.8C231.1,108.6,231.3,110.5,230.3,111.8z"/>
						</g>
						<g id="XMLID_1122_">
							<path id="XMLID_1123_" class="st1" d="M218.8,137.5c-0.7,0.8-1.8,1.3-2.9,1.1l-29.5-4.7c-1.7-0.3-2.8-1.9-2.6-3.5
								c0.3-1.7,1.9-2.8,3.5-2.6l29.5,4.7c1.7,0.3,2.8,1.9,2.6,3.5C219.3,136.6,219.1,137.1,218.8,137.5z"/>
						</g>
						<g id="XMLID_1120_">
							<path id="XMLID_1121_" class="st1" d="M312.5,250.2c-0.3,0.4-0.8,0.7-1.3,0.9c-1.6,0.6-3.4-0.2-4-1.8l-10.6-27.9
								c-0.6-1.6,0.2-3.4,1.8-4c1.6-0.6,3.4,0.2,4,1.8l10.6,27.9C313.4,248.2,313.1,249.4,312.5,250.2z"/>
						</g>
						<g id="XMLID_835_">
							<path id="XMLID_836_" class="st1" d="M350.6,209.8c-1.1,1.3-3,1.5-4.3,0.4l-23.1-18.8c-1.3-1.1-1.5-3-0.4-4.3
								c1.1-1.3,3-1.5,4.3-0.4l23.1,18.8C351.4,206.5,351.6,208.4,350.6,209.8z"/>
						</g>
						<g id="XMLID_832_">
							<path id="XMLID_833_" class="st1" d="M355.5,159.5c-0.7,0.8-1.8,1.3-2.9,1.1l-29.5-4.7c-1.7-0.3-2.8-1.9-2.6-3.5
								c0.3-1.7,1.9-2.8,3.5-2.6l29.5,4.7c1.7,0.3,2.8,1.9,2.6,3.5C356.1,158.6,355.8,159.1,355.5,159.5z"/>
						</g>
						<g id="XMLID_830_">
							<path id="XMLID_831_" class="st1" d="M351,116.2c-0.3,0.4-0.8,0.7-1.3,0.9l-27.9,10.6c-1.6,0.6-3.4-0.2-4-1.8
								c-0.6-1.6,0.2-3.4,1.8-4l27.9-10.6c1.6-0.6,3.4,0.2,4,1.8C351.9,114.2,351.7,115.3,351,116.2z"/>
						</g>
						<g id="XMLID_827_">
							<path id="XMLID_828_" class="st1" d="M325.5,80.9L306.7,104c-1.1,1.3-3,1.5-4.3,0.4c-1.3-1.1-1.5-3-0.4-4.3L320.7,77
								c1.1-1.3,3-1.5,4.3-0.4C326.4,77.6,326.6,79.5,325.5,80.9z"/>
						</g>
						<g id="XMLID_825_">
							<path id="XMLID_826_" class="st1" d="M281,92.5c-0.7,0.8-1.8,1.3-2.9,1.1c-1.7-0.3-2.8-1.9-2.6-3.5l4.7-29.5
								c0.3-1.7,1.9-2.8,3.5-2.6c1.7,0.3,2.8,1.9,2.6,3.5L281.7,91C281.6,91.6,281.4,92.1,281,92.5z"/>
						</g>
						<g id="XMLID_821_">
							<path id="XMLID_823_" class="st1" d="M253.1,95.4c-0.3,0.4-0.8,0.7-1.3,0.9c-1.6,0.6-3.4-0.2-4-1.8l-10.6-27.9
								c-0.6-1.6,0.2-3.4,1.8-4c1.6-0.6,3.4,0.2,4,1.8l10.6,27.9C254,93.4,253.7,94.5,253.1,95.4z"/>
						</g>
					</g>
					<path id="XMLID_814_" class="st33" d="M213.9,243.4c0.7-9.5-1.7-13.5,0.1-19.1c1.8-5.6,5.5-8.4,12.2-10.6
						c5.1-1.6,9.7-5.6,12.5-5.2c0.7,0,1.8,3.3,0.4,5.6c-1.6,2.8-5.7,5.1-8.6,7.1c-6.5,4.4,3.2,7.3,1.2,18
						C232.3,245.7,213.9,243.4,213.9,243.4z"/>
				</g>
			</g>
		</g>
	</g>
</g>
<g id="Paper_Planes">
	<g id="Paper_Plane">
		<g>
			<polygon id="XMLID_760_" class="st5" points="411.2,193.5 446.6,170.8 462.2,175.8 			"/>
			<polygon id="XMLID_758_" class="st5" points="411.2,193.5 441.8,168 435,160.1 			"/>
			<polygon id="XMLID_741_" class="st5" points="441.8,168 441.8,173.9 411.2,193.5 			"/>
			<polygon id="XMLID_736_" class="st42" points="441.8,168 441.8,173.9 411.2,193.5 			"/>
		</g>
		<g>
			<g>
				<path class="st1" d="M449,164.6c-0.3,0-0.6-0.1-0.8-0.3c-0.4-0.4-0.3-1,0.1-1.4c0.6-0.5,1.2-1.1,1.8-1.6c0.4-0.4,1-0.4,1.4,0
					c0.4,0.4,0.4,1,0,1.4c-0.6,0.6-1.2,1.2-1.9,1.7C449.5,164.5,449.3,164.6,449,164.6z"/>
			</g>
			<g>
				<path class="st1" d="M454.3,159.3c-0.2,0-0.5-0.1-0.7-0.2c-0.4-0.4-0.5-1-0.1-1.4c1-1.2,2.1-2.5,3-3.8c0.3-0.4,1-0.5,1.4-0.2
					c0.4,0.3,0.5,1,0.2,1.4c-1,1.4-2.1,2.7-3.1,3.9C454.8,159.2,454.6,159.3,454.3,159.3z M460.2,151.4c-0.2,0-0.4,0-0.5-0.2
					c-0.5-0.3-0.6-0.9-0.3-1.4c0.8-1.3,1.7-2.8,2.4-4.2c0.3-0.5,0.9-0.7,1.4-0.4c0.5,0.3,0.7,0.9,0.4,1.4c-0.8,1.5-1.6,2.9-2.5,4.3
					C460.8,151.2,460.5,151.4,460.2,151.4z M464.8,142.7c-0.1,0-0.3,0-0.4-0.1c-0.5-0.2-0.7-0.8-0.5-1.3c0.6-1.5,1.3-3,1.8-4.5
					c0.2-0.5,0.8-0.8,1.3-0.6c0.5,0.2,0.8,0.8,0.6,1.3c-0.6,1.6-1.2,3.1-1.9,4.6C465.5,142.5,465.1,142.7,464.8,142.7z M468.1,133.4
					c-0.1,0-0.2,0-0.3,0c-0.5-0.2-0.8-0.7-0.7-1.2c0.5-1.5,0.9-3.1,1.2-4.7c0.1-0.5,0.7-0.9,1.2-0.8c0.5,0.1,0.9,0.7,0.8,1.2
					c-0.4,1.6-0.8,3.3-1.3,4.8C469,133.1,468.6,133.4,468.1,133.4z M470.3,123.8c-0.1,0-0.1,0-0.2,0c-0.5-0.1-0.9-0.6-0.8-1.1
					c0.3-1.6,0.5-3.2,0.6-4.8c0.1-0.5,0.6-1,1.1-0.9c0.5,0.1,1,0.5,0.9,1.1c-0.2,1.7-0.4,3.3-0.6,5
					C471.2,123.5,470.8,123.8,470.3,123.8z M471.2,114C471.2,114,471.2,114,471.2,114c-0.6,0-1-0.5-1-1c0-0.8,0-1.5,0-2.3
					c0-0.9,0-1.7,0-2.6c0-0.6,0.4-1,1-1c0.6,0,1,0.4,1,1c0,0.9,0,1.8,0,2.6c0,0.8,0,1.6,0,2.4C472.2,113.6,471.8,114,471.2,114z
					 M470.9,104.1c-0.5,0-0.9-0.4-1-0.9c-0.2-1.6-0.4-3.2-0.7-4.8c-0.1-0.5,0.3-1.1,0.8-1.2c0.6-0.1,1.1,0.3,1.2,0.8
					c0.3,1.6,0.5,3.3,0.7,5c0.1,0.5-0.3,1-0.9,1.1C471,104.1,470.9,104.1,470.9,104.1z M469.2,94.4c-0.4,0-0.9-0.3-1-0.8
					c-0.4-1.6-0.9-3.1-1.4-4.7c-0.2-0.5,0.1-1.1,0.6-1.3c0.5-0.2,1.1,0.1,1.3,0.6c0.5,1.6,1,3.2,1.4,4.8c0.1,0.5-0.2,1.1-0.7,1.2
					C469.3,94.4,469.3,94.4,469.2,94.4z M466,85.1c-0.4,0-0.8-0.2-0.9-0.6c-0.6-1.5-1.4-3-2.1-4.4c-0.3-0.5-0.1-1.1,0.4-1.4
					c0.5-0.3,1.1-0.1,1.4,0.4c0.8,1.5,1.5,3,2.2,4.5c0.2,0.5,0,1.1-0.5,1.3C466.3,85,466.2,85.1,466,85.1z M461.4,76.4
					c-0.3,0-0.6-0.2-0.8-0.5c-0.9-1.3-1.8-2.7-2.8-3.9c-0.3-0.4-0.3-1.1,0.2-1.4c0.4-0.3,1.1-0.3,1.4,0.2c1,1.3,2,2.7,3,4.1
					c0.3,0.5,0.2,1.1-0.3,1.4C461.7,76.3,461.5,76.4,461.4,76.4z M455.2,68.7c-0.3,0-0.5-0.1-0.7-0.3c-1.1-1.1-2.3-2.3-3.5-3.4
					c-0.4-0.4-0.4-1-0.1-1.4c0.4-0.4,1-0.4,1.4-0.1c1.3,1.1,2.5,2.3,3.6,3.5c0.4,0.4,0.4,1,0,1.4C455.7,68.6,455.4,68.7,455.2,68.7z
					 M447.9,62.1c-0.2,0-0.4-0.1-0.6-0.2c-1.3-1-2.6-2-3.9-2.9c-0.5-0.3-0.6-0.9-0.3-1.4c0.3-0.5,0.9-0.6,1.4-0.3c1.4,1,2.7,2,4,3
					c0.4,0.3,0.5,1,0.2,1.4C448.5,62,448.2,62.1,447.9,62.1z M439.8,56.5c-0.2,0-0.4,0-0.5-0.1c-1.4-0.8-2.8-1.7-4.2-2.4
					c-0.5-0.3-0.7-0.9-0.4-1.4c0.3-0.5,0.9-0.7,1.4-0.4c1.5,0.8,2.9,1.6,4.3,2.5c0.5,0.3,0.6,0.9,0.3,1.4
					C440.5,56.3,440.1,56.5,439.8,56.5z M431.1,51.8c-0.1,0-0.3,0-0.4-0.1c-1.5-0.7-3-1.4-4.5-2c-0.5-0.2-0.8-0.8-0.5-1.3
					c0.2-0.5,0.8-0.8,1.3-0.5c1.5,0.6,3.1,1.3,4.5,2c0.5,0.2,0.7,0.8,0.5,1.3C431.8,51.6,431.5,51.8,431.1,51.8z M330.1,49.3
					c-0.4,0-0.8-0.3-0.9-0.7c-0.2-0.5,0.1-1.1,0.6-1.3c1.6-0.6,3.1-1.1,4.7-1.6c0.5-0.2,1.1,0.1,1.3,0.6c0.2,0.5-0.1,1.1-0.6,1.3
					c-1.5,0.5-3.1,1-4.6,1.6C330.4,49.3,330.2,49.3,330.1,49.3z M422,48c-0.1,0-0.2,0-0.3-0.1c-1.5-0.6-3.1-1.1-4.6-1.6
					c-0.5-0.2-0.8-0.7-0.7-1.3c0.2-0.5,0.7-0.8,1.3-0.7c1.6,0.5,3.2,1,4.7,1.6c0.5,0.2,0.8,0.8,0.6,1.3C422.8,47.7,422.4,48,422,48z
					 M339.5,46.3c-0.4,0-0.8-0.3-1-0.7c-0.2-0.5,0.2-1.1,0.7-1.2c1.6-0.5,3.2-0.9,4.8-1.3c0.5-0.1,1.1,0.2,1.2,0.7
					c0.1,0.5-0.2,1.1-0.7,1.2c-1.6,0.4-3.2,0.8-4.7,1.3C339.7,46.3,339.6,46.3,339.5,46.3z M412.6,45c-0.1,0-0.2,0-0.3,0
					c-1.5-0.4-3.1-0.8-4.7-1.2c-0.5-0.1-0.9-0.7-0.8-1.2c0.1-0.5,0.6-0.9,1.2-0.8c1.6,0.4,3.3,0.8,4.8,1.2c0.5,0.1,0.8,0.7,0.7,1.2
					C413.5,44.7,413,45,412.6,45z M349.1,43.9c-0.5,0-0.9-0.3-1-0.8c-0.1-0.5,0.2-1.1,0.8-1.2c1.6-0.3,3.3-0.7,4.9-1
					c0.6-0.1,1.1,0.3,1.2,0.8c0.1,0.5-0.3,1.1-0.8,1.2c-1.6,0.3-3.2,0.6-4.8,1C349.2,43.9,349.2,43.9,349.1,43.9z M403,42.8
					c-0.1,0-0.1,0-0.2,0c-1.6-0.3-3.2-0.6-4.8-0.8c-0.5-0.1-0.9-0.6-0.8-1.1c0.1-0.5,0.6-0.9,1.1-0.8c1.7,0.2,3.3,0.5,4.9,0.8
					c0.5,0.1,0.9,0.6,0.8,1.2C403.9,42.4,403.5,42.8,403,42.8z M358.8,42.1c-0.5,0-0.9-0.4-1-0.9c-0.1-0.5,0.3-1.1,0.8-1.1
					c1.6-0.2,3.3-0.5,4.9-0.6c0.5-0.1,1,0.3,1.1,0.9c0.1,0.5-0.3,1-0.9,1.1c-1.6,0.2-3.2,0.4-4.9,0.6
					C358.9,42.1,358.8,42.1,358.8,42.1z M393.2,41.4c0,0-0.1,0-0.1,0c-1.6-0.2-3.2-0.3-4.9-0.4c-0.6,0-1-0.5-0.9-1.1
					c0-0.6,0.5-0.9,1.1-0.9c1.7,0.1,3.3,0.3,5,0.4c0.5,0.1,0.9,0.6,0.9,1.1C394.2,41,393.7,41.4,393.2,41.4z M368.6,41
					c-0.5,0-1-0.4-1-0.9c0-0.6,0.4-1,0.9-1.1c1.7-0.1,3.3-0.2,5-0.3c0.6-0.1,1,0.4,1,1c0,0.6-0.4,1-1,1
					C371.9,40.8,370.3,40.9,368.6,41C368.6,41,368.6,41,368.6,41z M383.4,40.7C383.4,40.7,383.4,40.7,383.4,40.7
					c-1.5,0-2.9-0.1-4.3-0.1l-0.6,0c0,0,0,0,0,0c-0.5,0-1-0.4-1-1c0-0.6,0.4-1,1-1l0.6,0c1.4,0,2.9,0,4.3,0.1c0.6,0,1,0.5,1,1
					C384.4,40.3,383.9,40.7,383.4,40.7z"/>
			</g>
			<g>
				<path class="st1" d="M323.1,52c-0.4,0-0.8-0.2-0.9-0.6c-0.2-0.5,0-1.1,0.5-1.3c0.8-0.3,1.6-0.6,2.3-0.9c0.5-0.2,1.1,0.1,1.3,0.6
					c0.2,0.5,0,1.1-0.6,1.3c-0.8,0.3-1.5,0.6-2.3,0.9C323.4,52,323.2,52,323.1,52z"/>
			</g>
		</g>
	</g>
	<g id="Paper_Plane_1_">
		<g id="XMLID_1220_">
			<polygon id="XMLID_352_" class="st43" points="100.4,143.2 146.4,120.6 113.3,152.2 			"/>
			<polygon id="XMLID_339_" class="st43" points="146.4,120.6 95.7,137.3 82.9,128.3 			"/>
			<polygon id="XMLID_337_" class="st43" points="95.7,137.3 97.7,150.2 100.4,143.2 146.4,120.6 			"/>
			<polygon id="XMLID_331_" class="st42" points="95.7,137.3 97.7,150.2 100.4,143.2 146.4,120.6 			"/>
			<polygon id="XMLID_1222_" class="st43" points="97.7,150.2 104.7,146.2 100.4,143.2 			"/>
			<polygon id="XMLID_1221_" class="st42" points="100.4,143.2 104.7,146.2 103.6,146.8 			"/>
		</g>
		<g>
			<path class="st44" d="M103.9,278.1c-0.1,0-0.2,0-0.3-0.1c-1.6-0.6-3.2-1.2-4.7-1.8c-0.5-0.2-0.8-0.8-0.6-1.3
				c0.2-0.5,0.8-0.8,1.3-0.6c1.5,0.6,3,1.2,4.6,1.8c0.5,0.2,0.8,0.8,0.6,1.3C104.7,277.9,104.3,278.1,103.9,278.1z M94.6,274.4
				c-0.1,0-0.3,0-0.4-0.1c-1.6-0.7-3.1-1.4-4.6-2.1c-0.5-0.2-0.7-0.8-0.5-1.3c0.2-0.5,0.8-0.7,1.3-0.5c1.5,0.7,3,1.4,4.5,2.1
				c0.5,0.2,0.7,0.8,0.5,1.3C95.4,274.2,95,274.4,94.6,274.4z M85.6,270c-0.2,0-0.3,0-0.5-0.1c-1.5-0.8-3-1.7-4.4-2.5
				c-0.5-0.3-0.6-0.9-0.3-1.4c0.3-0.5,0.9-0.6,1.4-0.3c1.4,0.9,2.8,1.7,4.3,2.5c0.5,0.3,0.7,0.9,0.4,1.4C86.3,269.9,86,270,85.6,270
				z M77.1,264.8c-0.2,0-0.4-0.1-0.6-0.2c-1.4-1-2.8-2-4.1-3c-0.4-0.3-0.5-1-0.2-1.4c0.3-0.4,1-0.5,1.4-0.2c1.3,1,2.6,2,4,2.9
				c0.5,0.3,0.6,0.9,0.2,1.4C77.8,264.6,77.5,264.8,77.1,264.8z M69.3,258.6c-0.2,0-0.5-0.1-0.7-0.3c-1.3-1.1-2.5-2.3-3.6-3.6
				c-0.4-0.4-0.4-1,0-1.4c0.4-0.4,1-0.4,1.4,0c1.1,1.2,2.3,2.3,3.5,3.5c0.4,0.4,0.4,1,0.1,1.4C69.9,258.5,69.6,258.6,69.3,258.6z
				 M62.5,251.3c-0.3,0-0.6-0.1-0.8-0.4c-1.1-1.3-2.1-2.7-3-4.1c-0.3-0.5-0.2-1.1,0.3-1.4c0.5-0.3,1.1-0.2,1.4,0.3
				c0.9,1.3,1.9,2.7,2.9,3.9c0.3,0.4,0.3,1.1-0.2,1.4C62.9,251.2,62.7,251.3,62.5,251.3z M56.9,243c-0.3,0-0.7-0.2-0.9-0.5
				c-0.8-1.5-1.6-3-2.3-4.5c-0.2-0.5,0-1.1,0.5-1.3c0.5-0.2,1.1,0,1.3,0.5c0.7,1.5,1.4,3,2.2,4.4c0.3,0.5,0.1,1.1-0.4,1.4
				C57.2,243,57.1,243,56.9,243z M52.7,234c-0.4,0-0.8-0.2-0.9-0.7c-0.6-1.6-1.1-3.2-1.6-4.8c-0.2-0.5,0.2-1.1,0.7-1.2
				c0.5-0.2,1.1,0.2,1.2,0.7c0.5,1.6,1,3.2,1.5,4.7c0.2,0.5-0.1,1.1-0.6,1.3C52.9,234,52.8,234,52.7,234z M49.9,224.4
				c-0.5,0-0.9-0.3-1-0.8c-0.4-1.6-0.7-3.3-0.9-5c-0.1-0.5,0.3-1.1,0.8-1.1c0.5-0.1,1.1,0.3,1.1,0.8c0.3,1.6,0.6,3.3,0.9,4.9
				c0.1,0.5-0.2,1.1-0.8,1.2C50.1,224.4,50,224.4,49.9,224.4z M48.4,214.5c-0.5,0-0.9-0.4-1-0.9c-0.2-1.6-0.3-3.3-0.4-5
				c0-0.6,0.4-1,0.9-1.1c0.5,0,1,0.4,1.1,0.9c0.1,1.7,0.2,3.4,0.4,4.9c0.1,0.5-0.3,1-0.9,1.1C48.4,214.5,48.4,214.5,48.4,214.5z
				 M47.9,204.5C47.8,204.5,47.8,204.5,47.9,204.5c-0.6,0-1-0.5-1-1c0-1.7,0.1-3.4,0.3-5.1c0.1-0.5,0.5-0.9,1.1-0.9
				c0.5,0.1,1,0.5,0.9,1.1c-0.2,1.6-0.3,3.3-0.3,4.9C48.8,204.1,48.4,204.5,47.9,204.5z M48.9,194.6c-0.1,0-0.1,0-0.2,0
				c-0.5-0.1-0.9-0.6-0.8-1.2c0.3-1.7,0.7-3.3,1.1-5c0.1-0.5,0.7-0.9,1.2-0.7c0.5,0.1,0.9,0.7,0.7,1.2c-0.4,1.6-0.8,3.2-1.1,4.8
				C49.7,194.3,49.3,194.6,48.9,194.6z M51.4,184.9c-0.1,0-0.2,0-0.3-0.1c-0.5-0.2-0.8-0.8-0.6-1.3c0.6-1.6,1.2-3.2,1.9-4.7
				c0.2-0.5,0.8-0.7,1.3-0.5c0.5,0.2,0.7,0.8,0.5,1.3c-0.7,1.5-1.3,3-1.8,4.6C52.2,184.7,51.8,184.9,51.4,184.9z M55.5,175.8
				c-0.2,0-0.3,0-0.5-0.1c-0.5-0.3-0.7-0.9-0.4-1.4c0.8-1.5,1.7-3,2.6-4.4c0.3-0.5,0.9-0.6,1.4-0.3c0.5,0.3,0.6,0.9,0.3,1.4
				c-0.9,1.4-1.7,2.8-2.5,4.2C56.2,175.6,55.8,175.8,55.5,175.8z M60.9,167.4c-0.2,0-0.4-0.1-0.6-0.2c-0.4-0.3-0.5-1-0.2-1.4
				c1-1.3,2.1-2.6,3.3-3.9c0.4-0.4,1-0.4,1.4-0.1c0.4,0.4,0.4,1,0.1,1.4c-1.1,1.2-2.2,2.5-3.2,3.8C61.5,167.3,61.2,167.4,60.9,167.4
				z M67.7,160.1c-0.3,0-0.5-0.1-0.7-0.3c-0.4-0.4-0.4-1,0-1.4c1.2-1.2,2.5-2.3,3.9-3.3c0.4-0.3,1.1-0.3,1.4,0.2
				c0.3,0.4,0.3,1.1-0.2,1.4c-1.3,1-2.5,2.1-3.7,3.2C68.2,160,67.9,160.1,67.7,160.1z M75.5,153.9c-0.3,0-0.6-0.2-0.8-0.4
				c-0.3-0.5-0.2-1.1,0.3-1.4c1.4-0.9,2.9-1.8,4.3-2.6c0.5-0.3,1.1-0.1,1.4,0.4c0.3,0.5,0.1,1.1-0.4,1.4c-1.4,0.8-2.8,1.7-4.2,2.6
				C75.9,153.8,75.7,153.9,75.5,153.9z M84.3,149c-0.4,0-0.7-0.2-0.9-0.6c-0.2-0.5,0-1.1,0.5-1.3c1.5-0.7,3.1-1.3,4.7-1.9
				c0.5-0.2,1.1,0.1,1.3,0.6c0.2,0.5-0.1,1.1-0.6,1.3c-1.5,0.6-3.1,1.2-4.6,1.9C84.5,149,84.4,149,84.3,149z"/>
		</g>
	</g>
</g>
<g id="Icon">
	<g id="At">
		<path class="st43" d="M335,415.4c0-0.4-0.2-0.7-0.5-0.9c-0.6-0.5-1.3-0.7-2.2-0.6c-0.9,0-1.7,0.2-2.3,0.6l-4,2.1
			c0.3-0.6,0.6-1.2,0.7-1.8c0.1-0.5,0.2-1,0.2-1.5c0-0.8,0-5.5,0-5.9c0-0.9-0.2-1.8-0.6-2.8c-0.6-1.4-1.8-2.7-3.6-4
			c-1.2-0.9-2.7-2-4.4-3.1c-1.7-1.1-3.3-2.1-4.7-2.9c-3.7-2-7.6-3.5-11.8-4.7c-4.2-1.2-8.8-1.7-13.7-1.7c-4.9,0-10.1,0.8-15.6,2.2
			c-5.5,1.4-11.3,3.8-17.4,7c-5.2,2.8-9.2,5.6-11.8,8.6c-2.7,3-4.3,5.9-4.8,8.8c-0.2,0.9-0.3,1.8-0.2,2.7c0,1,0,5.2,0,6
			c0,2,0.5,3.9,1.4,5.8c1.3,2.7,3.4,5.1,6.2,7.3c0.6,0.5,1.4,1.1,2.6,1.8c1.1,0.8,2.3,1.6,3.6,2.4c1.3,0.8,2.5,1.6,3.7,2.4
			c1.2,0.8,2.2,1.3,2.9,1.8c3.5,1.9,7.5,3.3,11.9,4.4c4.4,1.1,9.1,1.6,14,1.5c4.9,0,10-0.7,15.2-1.9c5.2-1.3,10.4-3.3,15.7-6
			c4.2-2.2,7.5-4.3,10-6.3c2.5-2,4.4-3.8,5.8-5.6c1.4-1.7,2.3-3.4,2.8-4.9c0.5-1.6,0.8-3,1.1-4.4c0-0.1,0-0.1,0-0.2
			C335,421.1,335,415.4,335,415.4z M320,422.6c-0.5,0.8-1.3,1.6-2.3,2.6c-1,0.9-2.3,2-3.9,3c-1.6,1.1-3.6,2.3-6.1,3.6
			c-3.5,1.8-7,3.2-10.6,4.1c-3.6,0.9-7.1,1.4-10.5,1.5c-3.4,0.1-6.8-0.2-10-0.9c-3.2-0.7-6.2-1.7-8.9-3.1c-0.8-0.4-1.8-0.9-2.9-1.6
			c-1.1-0.7-2.3-1.4-3.5-2.2c-1.2-0.8-2.3-1.5-3.3-2.2c-1-0.7-1.8-1.3-2.4-1.8c-2-1.8-3.5-3.6-4.3-5.6c-0.1-0.2-0.2-0.5-0.3-0.7
			c0.6-1.7,1.7-3.5,3.4-5.2c1.9-2,4.6-3.9,8.1-5.8c4.1-2.2,8.1-3.9,11.8-5c2.1-0.6,4.1-1.1,6-1.4l-1,0.5c-0.7,0.3-1,0.8-1.1,1.3
			c-0.1,0.5,0.2,1,0.7,1.3l0.7,0.4c-1.7-0.2-3.5-0.2-5.3,0c-1.8,0.2-4,1-6.4,2.3c-2.2,1.2-3.8,2.5-4.9,3.9c-0.9,1.2-1.3,2.5-1.3,3.8
			c0,0.2,0,5.1,0,6.1c0,0.2,0,0.4,0,0.6c0.1,1.5,0.8,3.1,2,4.6c1.2,1.6,3,3.1,5.3,4.6c2.3,1.5,4.7,2.7,7.3,3.5
			c2.6,0.9,5.2,1.4,7.8,1.6c2.6,0.2,5.2,0.1,7.7-0.4c2.5-0.5,4.9-1.3,7.1-2.5c1.9-1,3.3-1.9,4.3-2.7c1-0.8,1.7-1.6,2.2-2.3
			c0.4-0.7,0.7-1.4,0.7-2c0-0.6,0.1-1.2,0-1.8c1.7,0.1,3.7,0,6.1-0.4c2.4-0.4,5.1-1.4,8-3c0.2-0.1,0.3-0.2,0.5-0.3
			C320.6,421.7,320.3,422.1,320,422.6z M284.3,416.7c2.5,0.3,4.9,1.3,7.4,2.9c0.9,0.6,1.6,1.2,2.2,1.7c-0.3,0.2-0.7,0.5-1.2,0.7
			c-2.1,1.1-4.4,1.5-6.9,1.2c-2.5-0.3-5-1.2-7.4-2.8c-0.9-0.6-1.7-1.2-2.3-1.8c0.3-0.2,0.7-0.4,1.1-0.7
			C279.5,416.8,281.9,416.4,284.3,416.7z M312.2,410.7c-1.1,0.5-2.3,0.7-3.6,0.8c-1.6,0.1-3-0.3-4.2-1.1l-13.5-8.9
			c1.4,0.2,2.7,0.4,4.1,0.7c3.2,0.8,6.4,2,9.5,3.6c1.5,0.8,3,1.6,4.4,2.6C310.1,409.2,311.2,410,312.2,410.7z"/>
		<path class="st14" d="M335,415.4c0-0.4-0.2-0.7-0.5-0.9c-0.6-0.5-1.3-0.7-2.2-0.6c-0.9,0-1.7,0.2-2.3,0.6l-4,2.1
			c0.3-0.6,0.6-1.2,0.7-1.8c0.1-0.5,0.2-1,0.2-1.5c0-0.8,0-5.5,0-5.9c0-0.9-0.2-1.8-0.6-2.8c-0.6-1.4-1.8-2.7-3.6-4
			c-1.2-0.9-2.7-2-4.4-3.1c-1.7-1.1-3.3-2.1-4.7-2.9c-3.7-2-7.6-3.5-11.8-4.7c-4.2-1.2-8.8-1.7-13.7-1.7c-4.9,0-10.1,0.8-15.6,2.2
			c-5.5,1.4-11.3,3.8-17.4,7c-5.2,2.8-9.2,5.6-11.8,8.6c-2.7,3-4.3,5.9-4.8,8.8c-0.2,0.9-0.3,1.8-0.2,2.7c0,1,0,5.2,0,6
			c0,2,0.5,3.9,1.4,5.8c1.3,2.7,3.4,5.1,6.2,7.3c0.6,0.5,1.4,1.1,2.6,1.8c1.1,0.8,2.3,1.6,3.6,2.4c1.3,0.8,2.5,1.6,3.7,2.4
			c1.2,0.8,2.2,1.3,2.9,1.8c3.5,1.9,7.5,3.3,11.9,4.4c4.4,1.1,9.1,1.6,14,1.5c4.9,0,10-0.7,15.2-1.9c5.2-1.3,10.4-3.3,15.7-6
			c4.2-2.2,7.5-4.3,10-6.3c2.5-2,4.4-3.8,5.8-5.6c1.4-1.7,2.3-3.4,2.8-4.9c0.5-1.6,0.8-3,1.1-4.4c0-0.1,0-0.1,0-0.2
			C335,421.1,335,415.4,335,415.4z M320,422.6c-0.5,0.8-1.3,1.6-2.3,2.6c-1,0.9-2.3,2-3.9,3c-1.6,1.1-3.6,2.3-6.1,3.6
			c-3.5,1.8-7,3.2-10.6,4.1c-3.6,0.9-7.1,1.4-10.5,1.5c-3.4,0.1-6.8-0.2-10-0.9c-3.2-0.7-6.2-1.7-8.9-3.1c-0.8-0.4-1.8-0.9-2.9-1.6
			c-1.1-0.7-2.3-1.4-3.5-2.2c-1.2-0.8-2.3-1.5-3.3-2.2c-1-0.7-1.8-1.3-2.4-1.8c-2-1.8-3.5-3.6-4.3-5.6c-0.1-0.2-0.2-0.5-0.3-0.7
			c0.6-1.7,1.7-3.5,3.4-5.2c1.9-2,4.6-3.9,8.1-5.8c4.1-2.2,8.1-3.9,11.8-5c2.1-0.6,4.1-1.1,6-1.4l-1,0.5c-0.7,0.3-1,0.8-1.1,1.3
			c-0.1,0.5,0.2,1,0.7,1.3l0.7,0.4c-1.7-0.2-3.5-0.2-5.3,0c-1.8,0.2-4,1-6.4,2.3c-2.2,1.2-3.8,2.5-4.9,3.9c-0.9,1.2-1.3,2.5-1.3,3.8
			c0,0.2,0,5.1,0,6.1c0,0.2,0,0.4,0,0.6c0.1,1.5,0.8,3.1,2,4.6c1.2,1.6,3,3.1,5.3,4.6c2.3,1.5,4.7,2.7,7.3,3.5
			c2.6,0.9,5.2,1.4,7.8,1.6c2.6,0.2,5.2,0.1,7.7-0.4c2.5-0.5,4.9-1.3,7.1-2.5c1.9-1,3.3-1.9,4.3-2.7c1-0.8,1.7-1.6,2.2-2.3
			c0.4-0.7,0.7-1.4,0.7-2c0-0.6,0.1-1.2,0-1.8c1.7,0.1,3.7,0,6.1-0.4c2.4-0.4,5.1-1.4,8-3c0.2-0.1,0.3-0.2,0.5-0.3
			C320.6,421.7,320.3,422.1,320,422.6z M284.3,416.7c2.5,0.3,4.9,1.3,7.4,2.9c0.9,0.6,1.6,1.2,2.2,1.7c-0.3,0.2-0.7,0.5-1.2,0.7
			c-2.1,1.1-4.4,1.5-6.9,1.2c-2.5-0.3-5-1.2-7.4-2.8c-0.9-0.6-1.7-1.2-2.3-1.8c0.3-0.2,0.7-0.4,1.1-0.7
			C279.5,416.8,281.9,416.4,284.3,416.7z M312.2,410.7c-1.1,0.5-2.3,0.7-3.6,0.8c-1.6,0.1-3-0.3-4.2-1.1l-13.5-8.9
			c1.4,0.2,2.7,0.4,4.1,0.7c3.2,0.8,6.4,2,9.5,3.6c1.5,0.8,3,1.6,4.4,2.6C310.1,409.2,311.2,410,312.2,410.7z"/>
		<path class="st18" d="M251.1,419.3c0.6-1.7,1.7-3.5,3.4-5.2c1.9-2,4.6-3.9,8.1-5.8c4.1-2.2,8.1-3.9,11.8-5c2.1-0.6,4.1-1.1,6-1.4
			l3.6-1.9c0.7-0.3,1.4-0.5,2.3-0.5c0.9,0,1.6,0.2,2.1,0.6l2.4,1.6c1.4,0.2,2.7,0.4,4.1,0.7c3.2,0.8,6.4,2,9.5,3.6
			c1.5,0.8,3,1.6,4.4,2.6c1.2,0.8,2.3,1.5,3.3,2.3c0.2-0.1,0.4-0.2,0.6-0.3c1.2-0.6,1.9-1.4,2.1-2.3c0.2-0.9-0.4-1.9-1.9-3
			c-1.2-0.9-2.6-1.9-4.1-2.9c-1.5-1-2.9-1.8-4.4-2.6c-3.1-1.6-6.3-2.8-9.5-3.6c-3.2-0.8-6.5-1.1-9.9-0.9c-3.4,0.2-6.9,0.8-10.7,2
			c-3.7,1.1-7.7,2.8-11.8,5c-3.5,1.8-6.2,3.8-8.1,5.8c-1.9,2-3.2,4-3.7,6c-0.5,2-0.3,4,0.5,6c0.4,1,1,1.9,1.7,2.9
			c-0.7-0.9-1.3-1.9-1.7-2.9C251.3,419.8,251.2,419.5,251.1,419.3z"/>
		<path class="st18" d="M291.7,413.4c-2.4-1.6-4.9-2.6-7.4-2.9c-2.5-0.3-4.8,0.1-7,1.3c-2.1,1.1-3,2.4-2.8,3.9
			c0.1,0.9,0.7,1.9,1.7,2.9c0,0,0,0,0,0c0.3-0.2,0.7-0.4,1.1-0.7c2.2-1.2,4.6-1.6,7-1.3c2.5,0.3,4.9,1.3,7.4,2.9
			c0.9,0.6,1.6,1.2,2.2,1.7c-0.2,0.1-0.3,0.2-0.5,0.4c1.8-1.1,2.6-2.3,2.4-3.6C295.6,416.6,294.2,415,291.7,413.4z"/>
		<path class="st18" d="M284.2,430.5c-2.6-0.2-5.2-0.7-7.8-1.6c-2.6-0.9-5-2-7.3-3.5c-2.3-1.5-4.1-3-5.3-4.6c-1.2-1.6-1.9-3.1-2-4.6
			c0-0.3,0-0.6,0-0.9c0,0.1,0,0.2,0,0.3c0,0.2,0,5.1,0,6.1c0,0.2,0,0.4,0,0.6c0.1,1.5,0.8,3.1,2,4.6c1.2,1.6,3,3.1,5.3,4.6
			c2.3,1.5,4.7,2.7,7.3,3.5c2.6,0.9,5.2,1.4,7.8,1.6L284.2,430.5z"/>
		<path class="st18" d="M306.2,418.8c0,0.6,0,1.2,0,1.8l0,4.3c1.7,0.1,3.7,0,6.1-0.4l0-6.1C309.9,418.8,307.9,419,306.2,418.8z"/>
		<path class="st18" d="M270.5,443.1c-4.4-1.1-8.4-2.5-11.9-4.4c-0.8-0.4-1.7-1-2.9-1.8c-1.2-0.8-2.4-1.5-3.7-2.4
			c-1.3-0.8-2.5-1.6-3.6-2.4c-1.1-0.8-2-1.4-2.6-1.8c-2.8-2.2-4.9-4.6-6.2-7.3c-0.9-1.9-1.4-3.9-1.4-5.9c0,0,0,0.1,0,0.1
			c0,1,0,5.2,0,6c0,2,0.5,3.9,1.4,5.8c1.3,2.7,3.4,5.1,6.2,7.3c0.6,0.5,1.4,1.1,2.6,1.8c1.1,0.8,2.3,1.6,3.6,2.4
			c1.3,0.8,2.5,1.6,3.7,2.4c1.2,0.8,2.2,1.3,2.9,1.8c3.5,1.9,7.5,3.3,11.9,4.4c4.4,1.1,9.1,1.6,14,1.5v-6.1
			C279.6,444.7,274.9,444.2,270.5,443.1z"/>
		<path id="XMLID_733_" class="st43" d="M322.7,400.5c1.8,1.3,3,2.7,3.6,4c0.6,1.4,0.8,2.7,0.4,4.1c-0.3,1.3-1,2.6-2.1,3.8
			c-1.1,1.2-2.5,2.2-4.2,3.1c-3,1.6-5.7,2.6-8,3c-2.4,0.4-4.4,0.5-6.1,0.4c0,0.6,0,1.2,0,1.8c0,0.6-0.3,1.3-0.7,2
			c-0.4,0.7-1.2,1.5-2.2,2.3c-1,0.8-2.4,1.7-4.3,2.7c-2.2,1.2-4.6,2-7.1,2.5c-2.5,0.5-5.1,0.6-7.7,0.4c-2.6-0.2-5.2-0.7-7.8-1.6
			c-2.6-0.9-5-2-7.3-3.5c-2.3-1.5-4.1-3-5.3-4.6c-1.2-1.6-1.9-3.1-2-4.6c-0.1-1.5,0.3-3,1.3-4.4c1-1.4,2.6-2.7,4.9-3.9
			c2.5-1.3,4.6-2.1,6.4-2.3c1.8-0.2,3.6-0.2,5.3,0l-0.7-0.4c-0.5-0.4-0.8-0.8-0.7-1.3c0.1-0.5,0.4-0.9,1.1-1.3l4.7-2.5
			c0.7-0.3,1.4-0.5,2.3-0.5c0.9,0,1.6,0.2,2.1,0.6l15.9,10.4c1.2,0.8,2.6,1.1,4.2,1.1c1.6-0.1,3-0.4,4.2-1.1
			c1.2-0.6,1.9-1.4,2.1-2.3c0.2-0.9-0.4-1.9-1.9-3c-1.2-0.9-2.6-1.9-4.1-2.9c-1.5-1-2.9-1.8-4.4-2.6c-3.1-1.6-6.3-2.8-9.5-3.6
			c-3.2-0.8-6.5-1.1-9.9-0.9c-3.4,0.2-6.9,0.8-10.7,2c-3.7,1.1-7.7,2.8-11.8,5c-3.5,1.8-6.2,3.8-8.1,5.8c-1.9,2-3.2,4-3.7,6
			c-0.5,2-0.3,4,0.5,6c0.8,2,2.3,3.8,4.3,5.6c0.5,0.5,1.3,1.1,2.4,1.8c1,0.7,2.2,1.5,3.3,2.2c1.2,0.8,2.3,1.5,3.5,2.2
			c1.1,0.7,2.1,1.3,2.9,1.6c2.8,1.4,5.7,2.4,8.9,3.1c3.2,0.7,6.5,1,10,0.9c3.5-0.1,7-0.6,10.5-1.5c3.6-0.9,7.1-2.3,10.6-4.1
			c2.5-1.3,4.5-2.5,6.1-3.6c1.6-1.1,2.9-2.1,3.9-3c1-0.9,1.8-1.8,2.3-2.6c0.5-0.8,1-1.5,1.3-2.2c0.3-0.6,0.5-1.1,0.7-1.4
			c0.2-0.3,0.6-0.7,1.3-1l6.6-3.5c0.7-0.3,1.4-0.5,2.3-0.6c0.9,0,1.6,0.2,2.2,0.6c0.4,0.3,0.6,0.6,0.5,1.1c-0.2,1.4-0.6,2.8-1.1,4.4
			c-0.5,1.6-1.4,3.2-2.8,4.9c-1.4,1.7-3.3,3.6-5.8,5.6c-2.5,2-5.9,4.1-10,6.3c-5.2,2.8-10.4,4.8-15.7,6c-5.2,1.3-10.3,1.9-15.2,1.9
			c-4.9,0-9.6-0.5-14-1.5c-4.4-1.1-8.4-2.5-11.9-4.4c-0.8-0.4-1.7-1-2.9-1.8c-1.2-0.8-2.4-1.5-3.7-2.4c-1.3-0.8-2.5-1.6-3.6-2.4
			c-1.1-0.8-2-1.4-2.6-1.8c-2.8-2.2-4.9-4.6-6.2-7.3c-1.3-2.7-1.7-5.5-1.2-8.4c0.6-2.9,2.2-5.8,4.8-8.8c2.7-3,6.6-5.8,11.8-8.6
			c6.1-3.2,11.9-5.6,17.4-7c5.5-1.4,10.7-2.2,15.6-2.2c4.9,0,9.4,0.5,13.7,1.7c4.2,1.2,8.2,2.8,11.8,4.7c1.4,0.8,3,1.7,4.7,2.9
			C320,398.5,321.5,399.5,322.7,400.5z M278.5,420.4c2.4,1.6,4.9,2.5,7.4,2.8c2.5,0.3,4.8-0.1,6.9-1.2c2.2-1.2,3.2-2.5,3-3.9
			c-0.2-1.5-1.6-3-4.1-4.6c-2.4-1.6-4.9-2.6-7.4-2.9c-2.5-0.3-4.8,0.1-7,1.3c-2.1,1.1-3,2.4-2.8,3.9
			C274.7,417.2,276.1,418.8,278.5,420.4z"/>
	</g>
</g>
<g id="Envelope">
	<g id="Mail">
		<path id="XMLID_767_" class="st5" d="M324.1,373.2v0.7c0,1.2,0.8,2.6,1.8,3.2l39.6,22.9c1,0.6,2.7,0.6,3.7,0l65.5-37.8
			c1-0.6,1.8-2,1.8-3.2v-0.7c0-1.2-0.8-2.6-1.8-3.2l-39.6-22.9c-1-0.6-2.7-0.6-3.7,0L325.9,370C324.9,370.6,324.1,372,324.1,373.2z"
			/>
		<path id="XMLID_763_" class="st5" d="M324.1,373.2v0.7c0,1.2,0.8,2.6,1.8,3.2l39.6,22.9c1,0.6,2.7,0.6,3.7,0l65.5-37.8
			c1-0.6,1.8-2,1.8-3.2v-0.7c0-1.2-0.8-2.6-1.8-3.2l-39.6-22.9c-1-0.6-2.7-0.6-3.7,0L325.9,370C324.9,370.6,324.1,372,324.1,373.2z"
			/>
		<path class="st14" d="M367.3,346.1L325.9,370c-1,0.6-1.8,2-1.8,3.2v0.7c0,1.2,0.8,2.6,1.8,3.2l39.6,22.9c0.5,0.3,1.2,0.4,1.8,0.4
			h0V346.1z"/>
		<path class="st6" d="M367.3,346.1L325.9,370c-1,0.6-1.8,2-1.8,3.2v0.7c0,1.2,0.8,2.6,1.8,3.2l39.6,22.9c0.5,0.3,1.2,0.4,1.8,0.4h0
			V346.1z"/>
		<path class="st14" d="M434.7,355l-39.6-22.9c-1-0.6-2.7-0.6-3.7,0l-24.1,13.9v54.3h0c0.7,0,1.3-0.1,1.8-0.4l65.5-37.8
			c1-0.6,1.8-2,1.8-3.2v-0.7C436.6,357,435.7,355.6,434.7,355z"/>
		<path id="XMLID_762_" class="st5" d="M359.2,391.3l-33.2-19.2c-1-0.6-1-1.5,0-2.1l65.5-37.8c1-0.6,2.7-0.6,3.7,0l39.6,22.9
			c1,0.6,1,1.5,0,2.1l-10.9,6.3l-3.8,2.2L369.2,395c-1,0.6-2.7,0.6-3.7,0l-3.2-1.9L359.2,391.3z"/>
		<path class="st6" d="M389.3,359.5l45.4-4.4l-45,2.5l5.4-25.4c-0.6-0.3-1.3-0.4-2-0.4l-8.5,34.3l-59.5,4.9c0,0.4,0.2,0.8,0.7,1.2
			l48-2.8l-6.6,26.1l8.5-26.2h0l8.2-0.5c1-0.1,2-0.5,2.7-1.1l0,0l0,0c0.7-0.6,1.2-1.4,1.4-2.4L389.3,359.5z"/>
		<path id="XMLID_740_" class="st13" d="M339.4,369.8l45.3-3.7l1.6-6.5l0.9-3.6l6-24.2c-0.6,0-1.2,0.2-1.7,0.4l-32.8,18.9L325.9,370
			c-0.5,0.3-0.7,0.6-0.7,1l9.1-0.7L339.4,369.8z"/>
	</g>
</g>
</svg>
